<?xml version="1.0" encoding="utf-8"?>
<!-- Generator: Adobe Illustrator 22.0.1, SVG Export Plug-In . SVG Version: 6.00 Build 0)  -->
<svg version="1.1" id="Layer_2_1_" xmlns="http://www.w3.org/2000/svg" xmlns:xlink="http://www.w3.org/1999/xlink" x="0px" y="0px"
	 width="612px" height="795.6px" viewBox="0 0 612 795.6" style="enable-background:new 0 0 612 795.6;" xml:space="preserve">
<style type="text/css">
	.st0{fill:#607D8B;}
	.st1{fill:#263238;}
	.st2{font-family:'HelveticaNeue-Roman';}
	.st3{font-size:13px;}
	.st4{fill:#FFFFFF;}
	.st5{font-family:'HelveticaNeue-Black';}
	.st6{fill:none;stroke:#263238;stroke-miterlimit:10;}
	.st7{font-size:9px;}
	.st8{fill:none;stroke:#263238;stroke-width:2;stroke-miterlimit:10;}
	.st9{opacity:0.75;fill:#4CAF50;enable-background:new    ;}
	.st10{opacity:0.75;fill:#F44336;enable-background:new    ;}
	.st11{fill:#FFFFFF;stroke:#231F20;stroke-width:5;stroke-miterlimit:10;}
</style>
<rect x="27.2" y="198.2" class="st0" width="557.6" height="28.9"/>
<rect x="27.2" y="432.2" class="st0" width="557.6" height="28.9"/>
<rect x="27.2" y="613.9" class="st0" width="557.6" height="28.9"/>
<text transform="matrix(1 0 0 1 48 274)" class="st1 st2 st3">1.  The manner in which you were greeted.</text>
<text transform="matrix(1 0 0 1 48 297)" class="st1 st2 st3">2.  Sincerity and honesty in dealing with</text>
<text transform="matrix(1 0 0 1 48 320)" class="st1 st2 st3">3.  Consideration of your time</text>
<text transform="matrix(1 0 0 1 48 343)" class="st1 st2 st3">4.  Ability to listen, understand and  </text>
<text transform="matrix(1 0 0 1 48 358)" class="st1 st2 st3">     answer your questions</text>
<text transform="matrix(1 0 0 1 48 381)" class="st1 st2 st3">5.  Knowledge of the product  </text>
<text transform="matrix(1 0 0 1 48 396)" class="st1 st2 st3">     features and benefits</text>
<text transform="matrix(1 0 0 1 48 419)" class="st1 st2 st3">6.  Fulfilled all commitments made to you</text>
<text transform="matrix(1 0 0 1 48 499.6667)" class="st1 st2 st3">7.  The vehicle and/or payments were </text>
<text transform="matrix(1 0 0 1 48 514.6667)" class="st1 st2 st3">     discussed in a thorough manner</text>
<text transform="matrix(1 0 0 1 48 537.6667)" class="st1 st2 st3">8.  Explanation of warranty coverages</text>
<text transform="matrix(1 0 0 1 48 560.6667)" class="st1 st2 st3">9.  The professional manner in which you </text>
<text transform="matrix(1 0 0 1 48 575.6667)" class="st1 st2 st3">     were treated</text>
<text transform="matrix(1 0 0 1 48 598.6667)" class="st1 st2 st3">10.Fulfilled all commitments made to you  </text>
<text transform="matrix(1 0 0 1 48 684.3334)" class="st1 st2 st3">11. If you’ve contacted this store by phone, </text>
<text transform="matrix(1 0 0 1 48 699.3334)" class="st1 st2 st3">      how satisfied are you with the way your </text>
<text transform="matrix(1 0 0 1 48 714.3334)" class="st1 st2 st3">      call was handled?</text>
<text transform="matrix(1 0 0 1 51 218)" class="st4 st5 st3">Please rate your SALESPERSON and</text>
<text transform="matrix(1 0 0 1 51 452)" class="st4 st5 st3">Please rate your SALE TEAM</text>
<text transform="matrix(1 0 0 1 51 632.6666)" class="st4 st5 st3">More about the buying experience:</text>
<g>
	<line class="st6" x1="47" y1="729" x2="565" y2="729"/>
	<line class="st6" x1="47" y1="746" x2="565" y2="746"/>
	<line class="st6" x1="47" y1="763" x2="565" y2="763"/>
	<line class="st6" x1="47" y1="780" x2="565" y2="780"/>
</g>
<text transform="matrix(1 0 0 1 310.5732 657.5)" class="st1 st5 st7">completely </text>
<text transform="matrix(1 0 0 1 318.2732 667.5)" class="st1 st5 st7">satisfied</text>
<text transform="matrix(1 0 0 1 544.334 662.5)" class="st1 st5 st7">Poor</text>
<g>
	<rect x="339" y="676.7" class="st8" width="10" height="10"/>
	<rect x="554.1" y="676.7" class="st8" width="10" height="10"/>
	<rect x="500.3" y="676.7" class="st8" width="10" height="10"/>
	<rect x="446.5" y="676.7" class="st8" width="10" height="10"/>
	<rect x="392.8" y="676.7" class="st8" width="10" height="10"/>
</g>
<text transform="matrix(1 0 0 1 310.5732 472.5)" class="st1 st5 st7">completely </text>
<text transform="matrix(1 0 0 1 318.2732 482.5)" class="st1 st5 st7">satisfied</text>
<text transform="matrix(1 0 0 1 544.334 477.5)" class="st1 st5 st7">Poor</text>
<g>
	<rect x="339" y="491.7" class="st8" width="10" height="10"/>
	<rect x="554.1" y="491.7" class="st8" width="10" height="10"/>
	<rect x="500.3" y="491.7" class="st8" width="10" height="10"/>
	<rect x="446.5" y="491.7" class="st8" width="10" height="10"/>
	<rect x="392.8" y="491.7" class="st8" width="10" height="10"/>
</g>
<text transform="matrix(1 0 0 1 310.5732 242.5)" class="st1 st5 st7">completely </text>
<text transform="matrix(1 0 0 1 318.2732 252.5)" class="st1 st5 st7">satisfied</text>
<text transform="matrix(1 0 0 1 544.334 247.5)" class="st1 st5 st7">Poor</text>
<g>
	<rect x="339" y="261.7" class="st8" width="10" height="10"/>
	<rect x="554.1" y="261.7" class="st8" width="10" height="10"/>
	<rect x="500.3" y="261.7" class="st8" width="10" height="10"/>
	<rect x="446.5" y="261.7" class="st8" width="10" height="10"/>
	<rect x="392.8" y="261.7" class="st8" width="10" height="10"/>
</g>
<g>
	<rect x="339" y="288.7" class="st8" width="10" height="10"/>
	<rect x="554.1" y="288.7" class="st8" width="10" height="10"/>
	<rect x="500.3" y="288.7" class="st8" width="10" height="10"/>
	<rect x="446.5" y="288.7" class="st8" width="10" height="10"/>
	<rect x="392.8" y="288.7" class="st8" width="10" height="10"/>
</g>
<g>
	<rect x="339" y="313" class="st8" width="10" height="10"/>
	<rect x="554.1" y="313" class="st8" width="10" height="10"/>
	<rect x="500.3" y="313" class="st8" width="10" height="10"/>
	<rect x="446.5" y="313" class="st8" width="10" height="10"/>
	<rect x="392.8" y="313" class="st8" width="10" height="10"/>
</g>
<g>
	<rect x="339" y="339" class="st8" width="10" height="10"/>
	<rect x="554.1" y="339" class="st8" width="10" height="10"/>
	<rect x="500.3" y="339" class="st8" width="10" height="10"/>
	<rect x="446.5" y="339" class="st8" width="10" height="10"/>
	<rect x="392.8" y="339" class="st8" width="10" height="10"/>
</g>
<g>
	<rect x="339" y="373" class="st8" width="10" height="10"/>
	<rect x="554.1" y="373" class="st8" width="10" height="10"/>
	<rect x="500.3" y="373" class="st8" width="10" height="10"/>
	<rect x="446.5" y="373" class="st8" width="10" height="10"/>
	<rect x="392.8" y="373" class="st8" width="10" height="10"/>
</g>
<g>
	<rect x="339" y="407" class="st8" width="10" height="10"/>
	<rect x="554.1" y="407" class="st8" width="10" height="10"/>
	<rect x="500.3" y="407" class="st8" width="10" height="10"/>
	<rect x="446.5" y="407" class="st8" width="10" height="10"/>
	<rect x="392.8" y="407" class="st8" width="10" height="10"/>
</g>
<g>
	<rect x="339" y="527" class="st8" width="10" height="10"/>
	<rect x="554.1" y="527" class="st8" width="10" height="10"/>
	<rect x="500.3" y="527" class="st8" width="10" height="10"/>
	<rect x="446.5" y="527" class="st8" width="10" height="10"/>
	<rect x="392.8" y="527" class="st8" width="10" height="10"/>
</g>
<g>
	<rect x="339" y="555.3" class="st8" width="10" height="10"/>
	<rect x="554.1" y="555.3" class="st8" width="10" height="10"/>
	<rect x="500.3" y="555.3" class="st8" width="10" height="10"/>
	<rect x="446.5" y="555.3" class="st8" width="10" height="10"/>
	<rect x="392.8" y="555.3" class="st8" width="10" height="10"/>
</g>
<g>
	<rect x="339" y="593" class="st8" width="10" height="10"/>
	<rect x="554.1" y="593" class="st8" width="10" height="10"/>
	<rect x="500.3" y="593" class="st8" width="10" height="10"/>
	<rect x="446.5" y="593" class="st8" width="10" height="10"/>
	<rect x="392.8" y="593" class="st8" width="10" height="10"/>
</g>
<rect x="306.2" y="228.5" class="st9" width="73.5" height="495.5"/>
<rect x="385.2" y="228.5" class="st10" width="197.7" height="495.5"/>
<circle class="st11" cx="348" cy="246" r="102"/>
<g>
	<path d="M279.6,239.2c-0.1,2.2-1,8.7-9.7,9.8c-6.1,0.8-9.5-2.8-10.2-8.4c-0.9-6.8,2.7-13,9.8-13.9c4.7-0.6,9.1,0.9,10,7.2l-6.1,0.8
		c-0.2-2-1.3-3-3.3-2.7c-3.6,0.4-4.4,4.7-4,7.7c0.2,1.7,1,4.4,3.9,4c2-0.3,3-1.8,3.2-3.7L279.6,239.2z"/>
	<path d="M289.8,230.2c4.5-0.6,7.7,1.1,8.2,5.7c0.5,3.9-1,9.6-8,10.5c-4.2,0.5-7.9-1.1-8.5-6.2C280.9,235.3,283.6,230.9,289.8,230.2
		z M289.8,242.1c2.3-0.3,2.7-3.8,2.5-5.1c-0.2-1.8-0.8-2.8-2.4-2.6c-2.3,0.3-2.7,3.9-2.5,5.5C287.6,241.1,288.1,242.3,289.8,242.1z"
		/>
	<path d="M301.3,229.1l5.6-0.7l-0.2,2h0.1c1-1.6,2.5-2.7,4.5-3s3.8,0.2,4.4,2c1.1-1.7,2.6-2.9,4.7-3.2c3-0.4,5,0.8,5.4,3.9
		c0.1,0.7,0,1.8,0,2.5l-0.8,8.9l-5.8,0.7l0.6-7.5c0-0.3,0.1-1.8,0.1-2.3c-0.1-1-0.7-1.4-1.7-1.3c-1.1,0.1-1.9,0.9-2,2l-0.8,9.5
		l-5.8,0.7l0.7-8.4c0-0.4,0.1-1,0.1-1.4c-0.1-1-0.7-1.3-1.6-1.2c-1.4,0.2-2.1,1.2-2.2,2.6l-0.8,9l-5.8,0.7L301.3,229.1z"/>
	<path d="M329.7,225.5l5.6-0.7l-0.1,1.8h0.1c0.8-1.5,2-2.4,3.8-2.6c4.3-0.5,6,2.9,6.3,5.6c0.6,4.5-1,10-6.2,10.7
		c-1.7,0.2-3.3,0.2-4.9-1.7l-0.5,7l-5.8,0.7L329.7,225.5z M339.6,230.9c-0.2-1.5-0.8-2.7-2.5-2.4c-2.6,0.3-2.6,4.1-2.4,5.4
		c0.1,0.6,0.5,2.5,2.4,2.2C339.5,235.9,339.9,232.9,339.6,230.9z"/>
	<path d="M349.3,217.3l5.8-0.7l-1.7,21.5l-5.8,0.7L349.3,217.3z"/>
	<path d="M372.6,231.1c-0.3,1.1-0.9,5-7.5,5.8c-5.4,0.7-8-2.1-8.4-5.8c-0.9-7,4.2-10,8-10.4c3.4-0.4,7.7,0.9,8.3,5.7
		c0.1,0.8,0.2,1.7,0,2.7l-10.9,1.4c0.2,1.6,0.9,2.9,2.8,2.7c1.3-0.2,1.9-0.8,2.2-1.4L372.6,231.1z M367.4,226.8c0-0.2,0-0.4,0-0.5
		c-0.1-1.1-1-2-2.5-1.8c-1.6,0.2-2.5,1.3-2.7,2.9L367.4,226.8z"/>
	<path d="M383.1,218.8l3.1-0.4l-0.4,3.7l-3.1,0.4l-0.4,5c-0.1,0.5-0.1,1.1-0.1,1.6c0.1,0.5,0.4,0.9,1.3,0.8c0.9-0.1,1.4-0.2,1.9-0.3
		l-0.4,4.3c-1,0.3-2,0.6-3.1,0.8c-1.2,0.2-2.6,0.3-3.7-0.2c-1.1-0.4-1.8-1.6-1.9-2.7c-0.1-0.8,0-1.4,0.1-2.1l0.6-6.4l-2.6,0.3
		l0.4-3.7l2.5-0.3l0.4-4.7l5.8-0.7L383.1,218.8z"/>
	<path d="M403.1,227.3c-0.3,1.1-0.9,5-7.5,5.8c-5.4,0.7-8-2.1-8.4-5.8c-0.9-7,4.2-10,8-10.4c3.4-0.4,7.7,0.9,8.3,5.7
		c0.1,0.8,0.2,1.7,0,2.7l-10.9,1.4c0.2,1.6,0.9,2.9,2.8,2.7c1.3-0.2,1.9-0.8,2.2-1.4L403.1,227.3z M397.9,223c0-0.2,0-0.4,0-0.5
		c-0.1-1.1-1-2-2.5-1.8c-1.6,0.2-2.5,1.3-2.7,2.9L397.9,223z"/>
	<path d="M407.5,210l5.8-0.7l-1.7,21.5l-5.8,0.7L407.5,210z"/>
	<path d="M424.2,230.1c-1,2.7-1.7,4.3-7,4.9c-0.9,0.1-1.8,0.2-2.7,0.2l0.3-4.7c0.5,0,1,0,1.5-0.1c1.2-0.2,2.1-0.3,1.9-1.8l-4.5-13.7
		l5.9-0.7l2.1,9h0.1l2.8-9.6l6-0.8L424.2,230.1z"/>
	<path d="M294.7,266.4c-0.1-0.9-0.4-1.3-1-1.6c-0.5-0.3-1.2-0.3-1.9-0.2c-1.1,0.1-2.5,0.6-2.3,2c0.2,1.6,3.4,1.3,5.5,1.8
		c3.8,0.8,5.3,2.7,5.6,5.2c0.6,5.1-4,8-8.5,8.6c-4.8,0.6-9.4-1.1-9.8-6.4l6.3-0.8c0.1,1.1,0.5,1.8,1.1,2.3c0.6,0.4,1.4,0.4,2.4,0.2
		c1.3-0.2,2.7-1,2.6-2.4c-0.2-1.5-2.4-1.5-5.4-2.1c-2.7-0.5-5.3-1.6-5.7-5.1c-0.6-4.7,3.7-7.5,7.9-8c4.5-0.6,8.7,0.6,9.2,5.8
		L294.7,266.4z"/>
	<path d="M303.2,269.3c0.4-4.2,3.4-5.5,7.2-6c2.8-0.3,7.4-0.6,7.9,3.1c0.3,2.4-0.7,9.5-0.6,10.5c0.3,1.2,0.1,0.6,0.4,1.3l-5.7,0.7
		c-0.2-0.5-0.4-0.9-0.4-1.4h-0.1c-0.9,1.4-2.8,2.2-4.5,2.4c-2.6,0.3-5.1-0.5-5.4-3.4c-0.5-4,2.4-5.5,6.7-6.4c1.6-0.3,4.3-0.4,4-2.3
		c-0.1-1.1-1.1-1.2-2-1.1c-1.2,0.1-1.9,0.7-2.1,1.8L303.2,269.3z M309.8,276.2c2-0.2,2.6-1.8,2.6-4.1c-0.9,0.6-2,0.8-3,1.1
		c-1,0.2-1.8,0.8-1.7,1.9C307.9,276.2,308.9,276.3,309.8,276.2z"/>
	<path d="M328.8,261.5l3.1-0.4l-0.4,3.7l-3.1,0.4l-0.4,5c-0.1,0.5-0.1,1.1-0.1,1.6c0.1,0.5,0.4,0.9,1.3,0.8s1.4-0.2,1.9-0.3
		l-0.4,4.3c-1,0.3-2,0.6-3.1,0.8c-1.2,0.2-2.6,0.3-3.7-0.2c-1.1-0.4-1.8-1.6-1.9-2.7c-0.1-0.8,0-1.4,0.1-2.1l0.6-6.4l-2.6,0.3
		l0.4-3.7l2.5-0.3l0.4-4.7l5.8-0.7L328.8,261.5z"/>
	<path d="M334.2,260.8l5.8-0.7l-1.3,15.6l-5.8,0.7L334.2,260.8z M340.1,258.4l-5.8,0.7l0.3-4.2l5.8-0.7L340.1,258.4z"/>
	<path d="M346.8,269.6c0.1,0.6,0.3,1.1,0.7,1.3c0.4,0.2,0.9,0.3,1.6,0.2c1.6-0.2,1.6-1.2,1.6-1.6c-0.1-1.1-1.6-1-3.8-1.1
		c-1,0-4.2-0.1-4.6-3.4c-0.5-4.4,3.2-6.1,6.9-6.5c3.2-0.4,7.3-0.2,7.4,4l-5.2,0.7c0-0.6-0.2-1-0.6-1.2s-0.9-0.3-1.4-0.2
		c-0.8,0.1-1.6,0.5-1.5,1.4c0.1,0.8,0.7,1,1.5,1c4.4,0,6.7,0.7,7.1,3.9c0.4,3.5-2.3,6-7,6.6c-3.3,0.4-7.5,0.1-7.9-4.5L346.8,269.6z"
		/>
	<path d="M360.2,261.1l-2.4,0.3l0.3-3.7l2.3-0.3c0.3-4.6,1.8-6,6.3-6.6c1-0.1,2-0.2,3.1-0.2l-0.3,4c-0.4,0-0.9,0-1.6,0.1
		c-1.1,0.1-1.6,0.6-1.7,2.1l3-0.4l-0.3,3.7l-2.9,0.4l-0.9,12l-5.8,0.7L360.2,261.1z"/>
	<path d="M371.2,256.1l5.8-0.7l-1.3,15.6l-5.8,0.7L371.2,256.1z M377.1,253.7l-5.8,0.7l0.3-4.2l5.8-0.7L377.1,253.7z"/>
	<path d="M395,264.1c-0.3,1.1-0.9,5-7.5,5.8c-5.4,0.7-8-2.1-8.4-5.8c-0.9-7,4.2-10,8-10.4c3.4-0.4,7.7,0.9,8.3,5.7
		c0.1,0.8,0.2,1.7,0,2.7l-10.9,1.4c0.2,1.6,0.9,2.9,2.8,2.7c1.3-0.2,1.9-0.8,2.2-1.4L395,264.1z M389.8,259.8c0-0.2,0-0.4,0-0.5
		c-0.1-1.1-1-2-2.5-1.8c-1.6,0.2-2.5,1.3-2.7,2.9L389.8,259.8z"/>
	<path d="M407.8,265.3L407.8,265.3c-0.9,1.6-2.1,2.4-3.8,2.6c-4.9,0.6-6.1-3.6-6.4-5.5c-0.7-5.8,1.8-10.2,6.3-10.8
		c1.8-0.2,3.5,0.1,4.7,1.7l0.6-7.8l5.8-0.7l-1.7,21.5l-5.7,0.7L407.8,265.3z M408.3,258.2c-0.2-1.7-0.9-2.7-2.4-2.6
		c-2.3,0.3-2.7,3.2-2.5,5.4c0.2,1.4,0.9,2.4,2.5,2.2C408.1,263.1,408.5,260.1,408.3,258.2z"/>
</g>
<g>
	<path d="M263.5,462.3l20.8-4.1c7.7-1.5,13.5,1.8,15.4,11.1c1.6,8.5-4.1,17.2-15.1,19.3l-8.7,1.7l-0.2,13.2l-12.8,2.5L263.5,462.3z
		 M276,479.9l4.9-1c5.2-1,6.5-3.3,6-6.1c-0.6-3.2-3.6-3.2-6.3-2.7l-4.4,0.9L276,479.9z"/>
	<path d="M312.9,452.7l12.7-2.5l14.7,40.8l-12.7,2.5l-1.9-5.9l-13.7,2.7l-2.1,6.6l-13.2,2.6L312.9,452.7z M315,480.3l8.1-1.6
		l-3.9-12.3h-0.1L315,480.3z"/>
	<path d="M364.8,455.8c-0.3-1.7-1.1-2.7-2.1-3.2c-1.1-0.5-2.5-0.5-4-0.2c-2.2,0.4-4.9,1.6-4.3,4.4c0.6,3.2,7,2.1,11.4,2.8
		c7.8,1.2,11.1,4.7,12,9.7c2,10.1-6.9,16.8-16.1,18.6c-9.7,1.9-19.2-0.8-20.8-11.7l12.5-2.4c0.4,2.3,1.3,3.6,2.5,4.5
		c1.3,0.7,2.9,0.5,5,0.1c2.5-0.5,5.4-2.4,4.9-5.2c-0.6-3.1-5-2.6-11.2-3.4c-5.5-0.7-10.9-2.5-12.3-9.5c-1.8-9.5,6.5-15.6,15-17.3
		c9-1.7,17.7,0,19.5,10.5L364.8,455.8z"/>
	<path d="M404.1,448.2c-0.3-1.7-1.1-2.7-2.1-3.2c-1.1-0.5-2.5-0.5-4-0.2c-2.2,0.4-4.9,1.6-4.3,4.4c0.6,3.2,7,2.1,11.4,2.8
		c7.8,1.2,11.1,4.7,12,9.7c2,10.1-6.9,16.8-16.1,18.6c-9.7,1.9-19.2-0.8-20.8-11.7l12.5-2.4c0.4,2.3,1.3,3.6,2.5,4.5
		c1.3,0.7,2.9,0.5,5,0.1c2.5-0.5,5.4-2.4,4.9-5.2c-0.6-3.1-5-2.6-11.2-3.4c-5.5-0.7-10.9-2.5-12.3-9.5c-1.8-9.5,6.5-15.6,15-17.3
		c9-1.7,17.7,0,19.5,10.5L404.1,448.2z"/>
</g>
<g>
	<path d="M436,459.6l32.5-6.3l-0.1,11.2l-19.5,3.8l-0.1,5.5l16.5-3.2l-0.1,10.4l-16.5,3.2l-0.2,16.7l-13,2.5L436,459.6z"/>
	<path d="M480.7,450.9l12.7-2.5l14.7,40.8l-12.7,2.5l-1.9-5.9l-13.7,2.7l-2.1,6.6l-13.2,2.6L480.7,450.9z M482.8,478.6l8.1-1.6
		l-3.9-12.3h-0.1L482.8,478.6z"/>
	<path d="M511.5,444.9l13-2.5l-0.5,43.7l-13,2.5L511.5,444.9z"/>
	<path d="M531.3,441.1l13-2.5l-0.4,32.5l18.6-3.6l-0.1,11.2l-31.6,6.1L531.3,441.1z"/>
</g>
</svg>
