<?xml version="1.0" encoding="utf-8"?>
<!-- Generator: Adobe Illustrator 22.1.0, SVG Export Plug-In . SVG Version: 6.00 Build 0)  -->
<svg version="1.1" id="Layer_1" xmlns="http://www.w3.org/2000/svg" xmlns:xlink="http://www.w3.org/1999/xlink" x="0px" y="0px"
	 width="500px" height="500px" viewBox="0 0 500 500" style="enable-background:new 0 0 500 500;" xml:space="preserve">
<style type="text/css">
	.st0{fill:#FFFFFF;stroke:#3D7CC9;stroke-width:11.442;}
	.st1{fill:#3D7CC9;}
	.st2{fill:#4C9C2E;}
	.st3{fill:#6C94D4;}
	.st4{fill:none;stroke:#4C9C2E;stroke-width:0.38;}
	.st5{fill:none;stroke:#4C9C2E;stroke-width:10.3021;}
	.st6{fill:none;stroke:#4C9C2E;stroke-width:11.442;}
</style>
<ellipse transform="matrix(0.7071 -0.7071 0.7071 0.7071 -103.5533 250)" class="st0" cx="250" cy="250" rx="241" ry="241"/>
<path class="st1" d="M330.1,198.9c0,14.8-10.1,26.9-22.5,26.9c-8.2,0-15.3-5.2-19.3-13c-3.9,7.8-11.1,13-19.3,13
	c-8.2,0-15.4-5.3-19.4-13.1c-3.9,7.9-11.1,13.1-19.3,13.1c-8.2,0-15.3-5.2-19.3-13c-3.9,7.8-11.1,13-19.3,13
	c-12.4,0-22.5-12-22.5-26.8c0,44.4,36,80.4,80.5,80.4C294.1,279.3,330.1,243.3,330.1,198.9C330.1,198.9,330.1,198.9,330.1,198.9"/>
<path class="st2" d="M191.7,225.7c8.2,0,15.3-5.2,19.3-13c3.9,7.8,11.1,13,19.3,13c8.2,0,15.4-5.3,19.3-13.1
	c3.9,7.9,11.1,13.1,19.4,13.1c8.2,0,15.3-5.2,19.3-13c3.9,7.8,11.1,13,19.3,13c12.4,0,22.5-12,22.5-26.9v0c-0.5,0-40.5,0-80.4,0
	c-40.2,0-80.4,0-80.5,0v0c0,0,0,0,0,0.1C169.2,213.7,179.3,225.7,191.7,225.7"/>
<path class="st3" d="M249.6,118.4c-44.4,0-80.5,36-80.5,80.5v0c0,0,40.2,0,80.5,0c-12.1,0-21.9-9.8-21.9-21.9
	c0-12.1,9.8-21.9,21.9-21.9c12.1,0,21.9,9.8,21.9,21.9c0,12.1-9.8,21.9-21.9,21.9c40.2,0,80.5,0,80.5,0l0,0
	C330.1,154.4,294.1,118.4,249.6,118.4"/>
<path class="st2" d="M385.2,349.4c-18.1-9.8-38.8-15.3-60.8-15.3c-29.6,0-56.8,10-78.4,26.9c18.1,9.8,38.8,15.3,60.8,15.3
	C336.3,376.3,363.5,366.3,385.2,349.4"/>
<path class="st4" d="M385.2,349.4c-18.1-9.8-38.8-15.3-60.8-15.3c-29.6,0-56.8,10-78.4,26.9c18.1,9.8,38.8,15.3,60.8,15.3
	C336.3,376.3,363.5,366.3,385.2,349.4z"/>
<path class="st2" d="M253.3,360.9c-21.7-16.8-48.9-26.9-78.4-26.9c-22,0-42.7,5.6-60.8,15.3c21.7,16.8,48.9,26.9,78.4,26.9
	C214.5,376.3,235.2,370.7,253.3,360.9"/>
<path class="st4" d="M253.3,360.9c-21.7-16.8-48.9-26.9-78.4-26.9c-22,0-42.7,5.6-60.8,15.3c21.7,16.8,48.9,26.9,78.4,26.9
	C214.5,376.3,235.2,370.7,253.3,360.9z"/>
<line class="st5" x1="249.7" y1="285.2" x2="249.7" y2="384.1"/>
<path class="st6" d="M377.6,243c-59.1,8.1-106.4,51.7-118.7,107.8C318.7,344.3,366.8,300,377.6,243z"/>
<path class="st6" d="M121.7,243c10.8,57,58.9,101.3,118.7,107.8C228.1,294.7,180.7,251.1,121.7,243z"/>
<path class="st1" d="M125,89.7c2.6,2.9,3.8,5.8,3.6,8.7c-0.2,2.9-1.7,5.6-4.6,8.2c-2.9,2.6-5.8,3.8-8.7,3.6
	c-2.9-0.2-5.6-1.7-8.2-4.6L95.7,92.6l2.2-2l2.2-2l12.5,14c1.3,1.5,2.7,2.3,4.1,2.3c1.4,0.1,2.9-0.5,4.4-1.8c1.5-1.3,2.3-2.7,2.3-4.1
	c0.1-1.4-0.5-2.9-1.9-4.4l-12.5-14l2.2-2l2.2-2L125,89.7"/>
<polyline class="st1" points="141,92.2 136.5,95.1 120.9,71.1 127.8,66.6 148.3,79.1 136.6,60.9 141.1,58 156.7,82.1 153.3,84.3 
	149.9,86.5 129.1,73.8 141,92.2 "/>
<polyline class="st1" points="148.5,54.3 151.1,52.9 153.8,51.6 166.7,77.2 164.1,78.5 161.5,79.9 148.5,54.3 "/>
<polyline class="st1" points="169,49.7 160.9,52.9 160.1,50.8 159.3,48.7 181.1,40.2 181.9,42.3 182.7,44.4 174.5,47.5 183.3,70.1 
	180.6,71.2 177.8,72.3 169,49.7 "/>
<polyline class="st1" points="194.8,66.1 187.9,38.2 206.2,33.7 206.8,35.8 207.3,38 194.7,41.1 196.4,48 208.2,45.1 208.8,47.3 
	209.3,49.4 197.5,52.4 199.4,60.3 212.4,57.1 213,59.3 213.5,61.4 194.8,66.1 "/>
<path class="st1" d="M222.6,55.6l4.1-0.4c3-0.3,5.1-1.4,6.5-3.2c1.4-1.8,1.9-4.4,1.5-7.6c-0.3-3.2-1.4-5.5-3.2-7
	c-1.8-1.5-4.1-2.2-7.1-1.8l-3.9,0.4L222.6,55.6 M214.2,32.2l2.9-0.3l8.4-0.9c4.2-0.4,7.7,0.5,10.3,2.7c2.6,2.3,4.2,5.7,4.7,10.1
	c0.5,4.7-0.5,8.3-2.9,11c-2.4,2.7-6.3,4.3-11.5,4.9l-6,0.6l-2.9,0.3L214.2,32.2z"/>
<path class="st1" d="M276.5,39.5c0.1-1.3-0.2-2.4-0.9-3.2c-0.7-0.8-1.8-1.3-3.2-1.5c-1.3-0.1-2.5,0.1-3.4,0.7
	c-1,0.6-1.5,1.4-1.6,2.4c-0.1,0.9,0.2,1.7,1,2.3c0.7,0.7,2.1,1.4,4.2,2.3l3.5,1.5c2.4,1,4,2.1,4.9,3.4c0.9,1.2,1.2,2.8,1,4.8
	c-0.3,2.6-1.6,4.7-3.9,6.1c-2.3,1.4-5.1,2-8.4,1.6c-3.8-0.4-6.6-1.5-8.3-3.4c-1.7-1.8-2.3-4.2-2-7.3l0-0.3l5.8,0.6
	c-0.3,1.7,0,3,0.9,4c0.9,1,2.2,1.6,4,1.8c1.6,0.2,2.9-0.1,4.1-0.7c1.1-0.6,1.8-1.5,1.9-2.7c0.1-0.7-0.2-1.4-0.8-2
	c-0.6-0.6-1.7-1.2-3.4-1.9l-3.5-1.5c-2.8-1.2-4.7-2.4-5.7-3.7c-1-1.3-1.5-2.9-1.3-4.8c0.3-2.7,1.5-4.7,3.6-6.2
	c2.1-1.5,4.7-2.1,7.8-1.7c3.4,0.4,6,1.4,7.7,3.1c1.5,1.6,2.2,3.6,1.9,5.9l-0.1,0.6L276.5,39.5"/>
<polyline class="st1" points="296.7,39.6 288.2,37.5 288.7,35.3 289.3,33.2 312,38.7 311.5,40.9 310.9,43.1 302.4,41 296.7,64.5 
	293.8,63.8 290.9,63.1 296.7,39.6 "/>
<path class="st1" d="M316.5,59.6l8.5,3.3l0.6-14.3l0,0L316.5,59.6 M323.8,43l3.5,1.4l3.5,1.4l-0.5,30.6l-3-1.2l-3-1.2l0.3-6.4
	l-11.3-4.4l-4.1,5l-5.9-2.3L323.8,43z"/>
<polyline class="st1" points="348.1,58.8 340.5,54.6 341.6,52.6 342.6,50.7 363.1,61.9 362.1,63.9 361,65.8 353.3,61.6 341.7,82.9 
	336.5,80 348.1,58.8 "/>
<polyline class="st1" points="349.6,87.4 366.1,63.9 381.6,74.8 380.3,76.6 379,78.5 368.4,71 364.3,76.8 374.3,83.8 371.7,87.4 
	361.7,80.4 357,87.1 367.9,94.8 365.4,98.5 349.6,87.4 "/>
<path class="st1" d="M393.2,95.6c0.8-1,1.2-2,1.1-3.1c-0.1-1.1-0.7-2.1-1.8-3.1c-1-0.9-2-1.4-3.2-1.5c-1.1-0.1-2,0.3-2.7,1
	c-0.6,0.6-0.8,1.5-0.6,2.5c0.2,1,0.9,2.4,2,4.4l2,3.3c1.3,2.2,2,4.1,1.9,5.6c0,1.5-0.7,3-2,4.5c-1.8,1.9-4,2.8-6.7,2.6
	c-2.7-0.2-5.3-1.4-7.7-3.7c-2.8-2.6-4.4-5.1-4.7-7.6c-0.3-2.4,0.6-4.8,2.7-7.1l0.2-0.2l4.3,3.9c-1.2,1.2-1.7,2.5-1.6,3.8
	c0.1,1.3,0.8,2.6,2.2,3.9c1.2,1.1,2.4,1.7,3.7,1.9c1.3,0.2,2.3-0.2,3.1-1c0.5-0.6,0.7-1.2,0.5-2c-0.1-0.8-0.7-2-1.6-3.5l-2-3.3
	c-1.5-2.6-2.3-4.7-2.4-6.4c-0.1-1.6,0.5-3.2,1.8-4.6c1.8-2,4-2.9,6.6-2.9c2.6,0.1,5,1.1,7.3,3.2c2.5,2.3,4,4.7,4.3,7
	c0.3,2.2-0.3,4.2-2,5.9l-0.4,0.4L393.2,95.6"/>
<polyline class="st1" points="54.2,151.2 80.2,163.3 72.2,180.4 70.2,179.5 68.2,178.5 73.6,166.7 67.2,163.8 62.1,174.8 
	60.1,173.9 58,173 63.2,161.9 55.7,158.4 50.1,170.6 46,168.7 54.2,151.2 "/>
<polyline class="st1" points="41.2,182.3 41.9,179.7 42.7,177.1 70.2,185.3 67.8,193.2 44.1,197 64.9,203.2 64.1,205.8 63.3,208.3 
	35.8,200.1 37,196.2 38.2,192.3 62.2,188.5 41.2,182.3 "/>
<polyline class="st1" points="62.2,212.7 61.8,215.9 61.4,219.1 38.3,223.9 38.3,223.9 59.3,234.6 58.9,237.5 58.6,240.4 
	31.5,225.9 31.9,222.8 32.4,219.7 62.2,212.7 "/>
<polyline class="st1" points="58.9,243.9 58.8,246.9 58.7,249.9 30,249.1 30.1,246.2 30.2,243.2 58.9,243.9 "/>
<path class="st1" d="M46.4,263.8l0.3,3.7c0.2,2.1,0.6,3.7,1.4,4.8c0.8,1.1,1.8,1.6,3.1,1.5c1.3-0.1,2.3-0.7,2.9-1.7
	c0.6-1,0.9-2.5,0.7-4.3l-0.4-4.5L46.4,263.8 M58.5,256.9l0.2,2.9l0.7,8.6c0.3,3.4-0.2,6-1.3,7.9c-1.1,1.9-2.9,2.9-5.3,3.1
	c-2.4,0.2-4.3-0.6-5.7-2.4c-0.7-0.9-1.2-2-1.6-3.3c-0.1,1.2-0.3,2.1-0.5,2.8c-0.6,1.5-1.8,2.3-3.6,2.7c-1.8,0.3-3.5,0.7-4.8,1.1
	l-0.4,0.1c-1,0.3-1.9,0.5-2.5,0.8c-0.7,0.2-1.3,0.5-1.8,0.8l-0.3-3.1l-0.2-3.1c0.4-0.2,0.9-0.3,1.5-0.5c0.7-0.2,1.6-0.4,2.8-0.6
	l2.5-0.5c1.9-0.4,3.1-0.8,3.6-1.4c0.5-0.6,0.8-1.7,0.6-3.3l-0.4-5l-11.6,0.9l-0.2-2.9l-0.2-2.9L58.5,256.9z"/>
<path class="st1" d="M43.2,304.8c2,0.8,4.7,0.9,8,0.1c3.3-0.8,5.7-1.9,7.1-3.6c1.5-1.6,1.9-3.6,1.4-6c-0.5-2.4-1.8-4-3.8-4.8
	c-2-0.8-4.7-0.9-8-0.1c-3.3,0.8-5.7,2-7.1,3.6c-1.4,1.6-1.9,3.6-1.4,6C39.9,302.4,41.2,304,43.2,304.8 M36.6,290.5
	c2-2.8,5.3-4.7,10-5.8c4.7-1.1,8.6-0.8,11.5,0.8c3,1.6,4.9,4.6,5.9,8.8c1,4.2,0.5,7.7-1.5,10.5c-2,2.8-5.3,4.7-10,5.8
	c-4.7,1.1-8.6,0.8-11.5-0.8c-3-1.6-4.9-4.6-5.9-8.8C34.1,296.8,34.6,293.3,36.6,290.5z"/>
<polyline class="st1" points="42.9,326.5 41.9,324 40.9,321.4 67.6,310.9 69.1,314.7 70.6,318.6 54.3,336.2 74.4,328.2 75.4,330.7 
	76.4,333.2 49.7,343.8 48.2,340 46.8,336.2 63.3,318.4 42.9,326.5 "/>
<polyline class="st1" points="56.5,357.2 55.1,354.9 53.7,352.6 78.2,337.7 80.8,341.9 83.3,346.1 67,363 67,363 89.5,356.2 
	92.1,360.4 94.6,364.6 70.1,379.5 68.7,377.2 67.3,374.9 90,361.1 90,361.2 63.6,368.7 61.9,366.1 60.3,363.4 79,343.5 79,343.5 
	56.5,357.2 "/>
<polyline class="st1" points="76.6,387.6 98.4,369 110.7,383.4 109,384.9 107.3,386.3 98.9,376.4 93.5,381 101.4,390.3 98,393.2 
	90.1,383.9 83.8,389.2 92.5,399.4 90.8,400.8 89.1,402.3 76.6,387.6 "/>
<polyline class="st1" points="98.9,411.9 96.8,410.1 94.8,408.3 113.9,386.9 117,389.6 120,392.4 113.4,415.4 127.8,399.3 
	129.8,401.1 131.8,402.9 112.8,424.3 109.7,421.6 106.7,418.9 113.4,395.5 98.9,411.9 "/>
<polyline class="st1" points="140.2,414.1 132.9,409.2 134.1,407.4 135.3,405.5 154.9,418.4 153.6,420.2 152.4,422.1 145.1,417.3 
	131.8,437.5 129.3,435.9 126.9,434.3 140.2,414.1 "/>
<path class="st1" d="M155,438.7l8.3,4l1.7-14.2l0,0L155,438.7 M163.6,422.7l6.8,3.3l-2.9,30.5l-2.9-1.4l-2.9-1.4l0.8-6.4l-11-5.3
	l-4.5,4.6l-2.8-1.4l-2.8-1.4L163.6,422.7z"/>
<polyline class="st1" points="175.1,459 183.9,431.7 189.5,433.5 182.1,456.6 193.5,460.3 192.8,462.4 192.1,464.5 175.1,459 "/>
<path class="st1" d="M222.6,454.8l3.2,0.4c1.9,0.2,3.3,0,4.4-0.6c1.1-0.6,1.7-1.7,1.9-3.1c0.2-1.4-0.1-2.6-0.9-3.4
	c-0.8-0.9-2-1.4-3.6-1.6l-4-0.5L222.6,454.8 M218.3,440.9l2.9,0.3l8,0.9c3.1,0.4,5.5,1.4,7,3.1c1.5,1.7,2.1,4,1.7,6.8
	c-0.3,2.9-1.5,5-3.5,6.3c-2,1.3-4.7,1.7-8.2,1.3l-4.2-0.5l-1.3,10.9l-5.9-0.7L218.3,440.9z"/>
<path class="st1" d="M249.8,456l3.7-0.1c2.1,0,3.7-0.4,4.8-1.1c1.1-0.7,1.7-1.7,1.6-3c0-1.3-0.5-2.3-1.5-3c-1-0.7-2.4-1-4.3-1
	l-4.5,0.1L249.8,456 M243.7,443.5l11.5-0.2c3.4-0.1,6,0.5,7.8,1.8c1.8,1.2,2.8,3.1,2.8,5.5c0,2.4-0.9,4.3-2.8,5.6
	c-0.9,0.6-2.1,1.1-3.4,1.4c1.1,0.2,2,0.4,2.7,0.7c1.4,0.7,2.2,1.9,2.5,3.8c0.2,1.9,0.5,3.5,0.8,4.9l0.1,0.4c0.2,1.1,0.4,1.9,0.6,2.6
	c0.2,0.7,0.4,1.3,0.7,1.8l-3.1,0.1l-3.1,0.1c-0.1-0.4-0.3-0.9-0.4-1.6c-0.1-0.7-0.3-1.6-0.5-2.9l-0.4-2.6c-0.3-1.9-0.7-3.1-1.2-3.7
	c-0.6-0.6-1.6-0.9-3.3-0.8l-5,0.1l0.2,11.6l-5.9,0.1L243.7,443.5z"/>
<path class="st1" d="M293.2,461.2c0.9-2,1.1-4.6,0.5-8c-0.6-3.4-1.7-5.8-3.2-7.3c-1.6-1.5-3.5-2.1-5.9-1.7c-2.4,0.4-4,1.6-5,3.6
	c-0.9,2-1.1,4.6-0.5,8c0.6,3.4,1.7,5.8,3.2,7.3c1.6,1.5,3.5,2.1,5.9,1.7C290.6,464.4,292.2,463.2,293.2,461.2 M278.5,467.2
	c-2.7-2.1-4.4-5.5-5.3-10.4c-0.8-4.8-0.4-8.6,1.4-11.5c1.8-2.9,4.8-4.7,9.1-5.5c4.3-0.8,7.7-0.1,10.4,2c2.7,2.1,4.4,5.6,5.3,10.3
	c0.9,4.8,0.4,8.6-1.4,11.5c-1.8,2.9-4.8,4.7-9.1,5.5C284.7,470,281.2,469.3,278.5,467.2z"/>
<polyline class="st1" points="308.8,438.9 300.5,441.6 299.8,439.5 299.1,437.4 321.3,430.1 322,432.2 322.7,434.3 314.4,437 
	322,460.1 316.4,461.9 308.8,438.9 "/>
<polyline class="st1" points="338.7,453.7 326.1,427.9 343.1,419.6 344.1,421.6 345.1,423.6 333.4,429.3 336.5,435.7 347.5,430.3 
	348.5,432.3 349.4,434.3 338.5,439.7 342.1,447.1 354.1,441.2 355.1,443.2 356.1,445.2 338.7,453.7 "/>
<path class="st1" d="M377.1,420.5c1.7,2.3,2.1,4.9,1.3,7.8c-0.8,2.9-2.7,5.3-5.7,7.2c-3.5,2.3-6.9,3-10.1,2.2
	c-3.2-0.9-6.2-3.4-8.9-7.4c-2.7-4.1-3.8-7.8-3.3-11.1c0.5-3.4,2.5-6.2,6.1-8.6c2.8-1.9,5.6-2.6,8.5-2.3c2.7,0.3,4.8,1.6,6.2,3.7
	l0.2,0.4l-4.9,3.2c-1-1.3-2.3-2.1-3.7-2.3c-1.4-0.2-2.8,0.2-4.3,1.2c-1.9,1.3-2.9,3-2.9,5.1c0,2.1,0.9,4.6,2.8,7.5
	c1.9,2.8,3.8,4.7,5.8,5.5c2,0.8,4,0.5,5.9-0.8c1.5-1,2.4-2.2,2.7-3.6c0.3-1.4,0-2.9-0.9-4.4L377.1,420.5"/>
<polyline class="st1" points="377.4,400.9 370.8,406.7 369.3,405 367.9,403.4 385.4,387.9 386.9,389.6 388.3,391.3 381.8,397 
	397.8,415.2 393.4,419.1 377.4,400.9 "/>
<polyline class="st1" points="388.3,384.5 390.3,382.3 392.3,380.1 413.3,399.7 409.3,404 388.3,384.5 "/>
<path class="st1" d="M425.2,374.5c-0.7-2.1-2.4-4.1-5.1-6.2c-2.7-2-5.2-3.1-7.4-3.1c-2.2,0-4,0.9-5.4,2.9c-1.4,1.9-1.8,4-1.2,6
	c0.7,2.1,2.4,4.1,5.1,6.2c2.7,2,5.2,3.1,7.4,3.1c2.2,0,4-0.9,5.4-2.9C425.5,378.6,425.9,376.5,425.2,374.5 M418.7,388.8
	c-3.4,0.3-7-1-10.9-3.9c-3.9-2.9-6.2-6-6.9-9.3c-0.7-3.3,0.3-6.7,2.8-10.2c2.6-3.5,5.6-5.4,8.9-5.7c3.4-0.3,7,1,10.9,3.9
	c3.9,2.9,6.2,6,6.9,9.3c0.7,3.3-0.3,6.7-2.8,10.2C425,386.6,422.1,388.5,418.7,388.8z"/>
<polyline class="st1" points="442.6,359.2 441.3,361.6 440.1,364 414.6,350.8 418.4,343.4 442.4,344.2 423.2,334.2 425.7,329.4 
	451.2,342.6 449.3,346.2 447.4,349.9 423.1,349.1 442.6,359.2 "/>
<path class="st1" d="M451.8,309.6l2.3-8.9l-14.3,1l0,0L451.8,309.6 M434.4,304.2l1-3.6l1-3.7l30.5-3.1l-0.8,3.1l-0.8,3.1l-6.4,0.4
	l-3.1,11.8l5.4,3.5l-0.8,3l-0.8,3.1L434.4,304.2z"/>
<path class="st1" d="M469.6,275.5c-0.6,4.9-2.3,8.5-5.1,10.8c-2.8,2.3-6.6,3.1-11.5,2.6c-4.5-0.5-8-2.2-10.4-5.1
	c-2.4-2.9-3.3-6.5-2.8-10.8c0.4-3.7,1.6-6.5,3.4-8.2c1.9-1.7,4.4-2.4,7.6-2l-0.7,5.8c-1.9-0.2-3.2,0.1-4.2,0.9
	c-0.9,0.8-1.5,2.2-1.8,4.1c-0.3,2.7,0.4,4.8,2,6.5c1.6,1.6,4.1,2.7,7.4,3.1c3.4,0.4,6-0.1,8-1.3c1.9-1.3,3.1-3.3,3.4-6.2
	c0.2-1.5,0.1-3.1-0.1-5l-6.3-0.7l-0.6,5.5l-4.4-0.5l1.3-11.3l14.2,1.6C469.9,268.6,470,272.1,469.6,275.5"/>
<polyline class="st1" points="470.5,255.4 441.8,256.1 441.3,237.2 445.8,237.1 446.1,250.1 453.2,249.9 452.9,237.7 455.1,237.6 
	457.4,237.6 457.7,249.8 465.9,249.6 465.5,236.2 467.8,236.2 470,236.1 470.5,255.4 "/>
<polyline class="st1" points="468.3,221.4 468.8,224 469.2,226.7 441,231.5 440.3,227.4 439.6,223.4 459.2,209.5 437.8,213.1 
	437.4,210.5 436.9,207.8 465.2,203 465.9,207 466.6,211 446.7,225 468.3,221.4 "/>
<path class="st1" d="M446.5,174.4c2.7-1,5.3-0.7,7.8,0.9c2.5,1.6,4.4,4,5.4,7.4c1.3,4,1.1,7.4-0.6,10.3c-1.7,2.9-4.9,5.1-9.5,6.6
	c-4.6,1.5-8.5,1.6-11.6,0.2c-3.1-1.4-5.3-4.1-6.7-8.2c-1-3.2-1-6.1,0.1-8.8c1-2.5,2.8-4.2,5.2-5l0.4-0.1l1.8,5.5
	c-1.6,0.7-2.6,1.6-3.2,2.9c-0.6,1.3-0.6,2.8,0,4.4c0.7,2.2,2.1,3.6,4.2,4.2c2.1,0.6,4.7,0.4,8-0.7c3.2-1.1,5.5-2.4,6.8-4.2
	c1.3-1.7,1.6-3.7,0.9-5.9c-0.6-1.7-1.5-2.9-2.7-3.6c-1.3-0.7-2.7-0.8-4.4-0.3L446.5,174.4"/>
<polyline class="st1" points="439.1,162 427.8,179 426.2,175.8 424.6,172.6 433.1,161.1 433.1,161.1 418.9,161 417.5,158.2 
	416.1,155.4 436.5,156.7 446.4,151.8 447.7,154.5 449,157.1 439.1,162 "/>
<path class="st1" d="M420.8,128.4c0,4.6-3.7,8.3-8.3,8.3c-4.6,0-8.3-3.7-8.3-8.3c0-4.6,3.7-8.3,8.3-8.3
	C417.1,120.1,420.8,123.8,420.8,128.4"/>
<path class="st1" d="M92.5,129.9c0,4.6-3.7,8.3-8.3,8.3c-4.6,0-8.3-3.7-8.3-8.3c0-4.6,3.7-8.3,8.3-8.3
	C88.8,121.6,92.5,125.3,92.5,129.9"/>
</svg>
