<?xml version="1.0" encoding="UTF-8" standalone="no"?>
<svg width="329px" height="199px" viewBox="0 0 329 199" version="1.1" xmlns="http://www.w3.org/2000/svg" xmlns:xlink="http://www.w3.org/1999/xlink">
    <!-- Generator: Sketch 40.3 (33839) - http://www.bohemiancoding.com/sketch -->
    <title>aaa</title>
    <desc>Created with Sketch.</desc>
    <defs></defs>
    <g id="Welcome" stroke="none" stroke-width="1" fill="none" fill-rule="evenodd">
        <g id="Artboard-3" transform="translate(-639.000000, -1.000000)">
            <g id="aaa" transform="translate(639.000000, 0.000000)">
                <g id="svg3384">
                    <g id="layer1" transform="translate(0.000000, 0.598911)">
                        <path d="M327.057812,8.6385446 C317.438573,-7.7503662 266.848178,2.93792488 203.786751,31.7956432 C206.994657,34.2905915 210.200319,37.1401596 212.693784,39.9904695 C261.1483,19.3268357 298.555455,12.9147606 306.39493,26.4518685 C315.301962,41.7724695 280.028441,79.8933239 223.380582,117.658808 L224.095014,118.370272 C293.212432,73.4804977 337.746854,27.1655587 327.057812,8.6385446 L327.057812,8.6385446 L327.057812,8.6385446 L327.057812,8.6385446 Z" id="path3342" fill="#0A357E"></path>
                        <path d="M28.501616,186.776995 C23.1570901,177.156244 34.558339,158.986854 57.3593249,137.254883 L57.3593249,137.254883 C55.5780667,136.897286 53.7975596,136.184338 52.0155502,135.472131 C51.6594469,135.472131 51.6594469,135.114545 51.6594469,135.114545 C49.8789399,134.40308 48.0969399,133.690873 46.3149305,132.979418 C18.8823765,158.270892 4.98767202,179.64892 11.4012404,191.052394 C19.2392216,204.233427 53.0838601,199.957934 98.3304883,183.213709 L97.9751362,182.501502 C61.6340479,194.970329 34.9144423,197.463756 28.501616,186.776995 L28.501616,186.776995 L28.501616,186.776995 L28.501616,186.776995 Z" id="path3344" fill="#0A357E"></path>
                        <path d="M6.57277269e-07,75.9747042 C6.57277269e-07,37.1409014 51.3033437,5.43213146 114.363296,5.43213146 C177.779352,5.43213146 229.083437,37.1409014 229.083437,75.9747042 C229.083437,115.164601 177.779352,146.872629 114.363296,146.872629 C51.3033437,146.871887 6.57277269e-07,115.164601 6.57277269e-07,75.9747042 L6.57277269e-07,75.9747042 L6.57277269e-07,75.9747042 L6.57277269e-07,75.9747042 L6.57277269e-07,75.9747042 Z M64.8412028,21.1088357 L86.5753812,94.8570798 L86.5753812,94.8570798 L109.375634,11.4881127 C93.3428263,12.202554 78.0237099,15.4067324 64.8412028,21.1088357 L64.8412028,21.1088357 L64.8412028,21.1088357 L64.8412028,21.1088357 L64.8412028,21.1088357 Z M108.306582,51.748554 L96.54923,94.8570798 L120.420019,94.8570798 L108.306582,51.748554 L108.306582,51.748554 L108.306582,51.748554 L108.306582,51.748554 Z M142.152704,94.8570798 L162.816338,20.3958873 C149.278479,15.0513709 133.95862,11.844216 117.925812,11.4881127 L142.152704,94.8570798 L142.152704,94.8570798 L142.152704,94.8570798 L142.152704,94.8570798 L142.152704,94.8570798 Z M64.4858507,94.8570798 L52.727015,51.748554 L40.971907,94.8570798 L64.4858507,94.8570798 L64.4858507,94.8570798 L64.4858507,94.8570798 L64.4858507,94.8570798 Z M200.224986,103.407258 C205.924854,95.2124319 209.132761,85.9500469 209.132761,75.9739531 C209.132761,57.0915869 197.375418,40.3465728 178.135455,28.232385 L200.224986,103.407258 L200.224986,103.407258 L200.224986,103.407258 L200.224986,103.407258 Z M175.999577,94.8570798 L163.886131,51.748554 L152.12954,94.8570798 L175.999577,94.8570798 L175.999577,94.8570798 L175.999577,94.8570798 L175.999577,94.8570798 Z M178.493784,103.407258 L149.634582,103.407258 L147.141869,112.670394 L153.910047,134.756207 C164.954441,131.550535 174.929042,126.562864 183.12461,120.509869 L178.493784,103.407258 L178.493784,103.407258 L178.493784,103.407258 L178.493784,103.407258 Z M75.5302451,134.756948 L66.9785643,103.408009 L38.4777005,103.408009 L35.9827427,112.312808 C45.9588272,122.288141 59.4966864,130.127615 75.5295033,135.114545 L75.5295033,134.756948 L75.5302451,134.756948 L75.5302451,134.756948 L75.5302451,134.756948 Z M122.914977,103.407258 L94.0557746,103.407258 L84.7926394,137.608 C94.0557746,139.747596 104.032601,140.814413 114.363296,140.814413 C120.776873,140.814413 126.832845,140.459803 132.889568,139.390009 L122.914977,103.407258 L122.914977,103.407258 L122.914977,103.407258 L122.914977,103.407258 Z M48.8091371,29.6590235 C30.9958225,41.4148826 19.9514282,57.805277 19.9514282,75.9747042 C19.9514282,85.9507887 23.1570901,94.8570798 28.501616,103.051155 L48.8091371,29.6590235 L48.8091371,29.6590235 L48.8091371,29.6590235 Z" id="path3346" fill="#FD000D"></path>
                    </g>
                </g>
            </g>
        </g>
    </g>
</svg>