<?xml version="1.0" encoding="UTF-8" standalone="no"?>
<svg width="897px" height="189px" viewBox="0 0 897 189" version="1.1" xmlns="http://www.w3.org/2000/svg" xmlns:xlink="http://www.w3.org/1999/xlink">
    <!-- Generator: Sketch 40.3 (33839) - http://www.bohemiancoding.com/sketch -->
    <title>aarp</title>
    <desc>Created with Sketch.</desc>
    <defs></defs>
    <g id="Welcome" stroke="none" stroke-width="1" fill="none" fill-rule="evenodd">
        <g id="Artboard-3" transform="translate(-1070.000000, -8.000000)" fill="#EE2722">
            <g id="aarp" transform="translate(1069.000000, 7.000000)">
                <g id="svg3117">
                    <g id="layer1" transform="translate(0.618009, 0.101516)">
                        <g id="g3039" transform="translate(429.670481, 95.329736) scale(1, -1) translate(-429.670481, -95.329736) translate(0.170481, 1.329736)">
                            <path d="M150.030228,35.757557 C150.171819,35.7764357 150.370046,35.8236327 150.502197,35.8425115 L137.381446,0.340968531 L136.682931,0.340968531 L86.0406082,0.340968531 L85.332654,0.340968531 L98.0003143,30.7452413 L98.4345262,30.7452413 L98.4628444,30.7452413 C101.983737,30.7452413 125.752119,30.9529078 150.067985,35.8425115 L150.030228,35.757557 L150.030228,35.757557 Z M858.446951,121.929741 C858.446951,81.7934583 826.721163,55.9672893 774.464705,55.9672893 L743.031538,55.9672893 L743.031538,0.340968531 L601.053685,0.340968531 L543.737714,75.8844006 L543.737714,0.340968531 L406.772176,0.340968531 L391.725789,41.7987661 C390.753532,41.9875538 375.471161,44.8571282 357.394731,44.8571282 C339.403255,44.8571282 323.431808,42.0441902 322.553945,41.8837206 L307.111104,0.340968531 L237.278503,0.340968531 L225.88516,31.8874074 C242.989333,27.6302428 256.100645,20.626216 262.642141,16.7371876 L265.549473,23.8828053 C254.996236,30.1411204 225.526463,45.0553553 183.256878,45.0553553 C150.539955,45.0553553 129.735541,37.0696321 95.7348609,37.0696321 C40.5238733,37.0696321 2.43593768,63.9718914 0.453665943,65.2934059 L15.1224768,101.153646 C18.9265507,98.6710862 55.6363354,74.9593405 97.9342386,74.9593405 C105.108174,74.9593405 111.262656,75.3463554 116.992365,75.9127188 L162.839479,187.911072 L169.409294,187.911072 L206.86479,187.911072 L239.053108,187.911072 L284.428252,70.2868428 L332.455864,187.911072 L408.773326,187.911072 L475.538126,14.8021128 L475.538126,187.911072 L566.788702,187.911072 C628.824368,187.911072 659.219201,159.441874 659.219201,121.929741 C659.219201,84.3892903 629.673913,69.8903884 621.471084,66.1712691 L674.907466,8.04351015 L674.907466,187.911072 L774.464705,187.911072 C829.524662,187.911072 858.446951,160.036556 858.446951,121.929741 L858.446951,121.929741 Z M208.856502,79.0560354 L187.919936,136.825098 L167.408143,81.5008372 C170.881839,81.642428 174.591519,81.7085038 178.59382,81.7085038 C195.235463,81.7085038 207.525548,79.3203383 208.856502,79.0560354 L208.856502,79.0560354 Z M378.293538,80.235959 L357.394731,136.098265 L336.137226,80.235959 C337.118922,80.3775499 348.559462,81.6990644 357.394731,81.6990644 C366.843559,81.6990644 377.274084,80.3964287 378.293538,80.235959 L378.293538,80.235959 Z M589.131736,121.929741 C589.131736,140.534777 579.739544,156.997072 553.762345,156.997072 L543.737714,156.997072 L543.737714,86.9945617 L553.762345,86.9945617 C577.153151,86.9945617 589.131736,100.266343 589.131736,121.929741 L589.131736,121.929741 Z M788.359486,121.929741 C788.359486,142.337701 777.532506,156.997072 756.860244,156.997072 L743.031538,156.997072 L743.031538,86.9945617 L756.860244,86.9945617 C776.258189,86.9945617 788.359486,100.115313 788.359486,121.929741 L788.359486,121.929741 Z" id="path3041"></path>
                        </g>
                        <g id="g3043" transform="translate(877.617877, 20.120345) scale(1, -1) translate(-877.617877, -20.120345) translate(858.617877, 0.620345)">
                            <path d="M19.3181677,38.1969462 C29.6920565,38.1969462 37.9704008,29.7581322 37.9704008,19.1954557 C37.9704008,8.46287009 29.6920565,0.118450004 19.2332132,0.118450004 C8.84988505,0.118450004 0.392192291,8.46287009 0.392192291,19.1954557 C0.392192291,29.7581322 8.84988505,38.1969462 19.2332132,38.1969462 L19.3181677,38.1969462 L19.3181677,38.1969462 Z M19.2332132,35.232978 C10.8699143,35.232978 4.01691776,28.0684815 4.01691776,19.1954557 C4.01691776,10.1619602 10.8699143,3.06353945 19.3181677,3.06353945 C27.7475423,2.97858494 34.506145,10.1619602 34.506145,19.1105011 C34.506145,28.0684815 27.7475423,35.232978 19.3181677,35.232978 L19.2332132,35.232978 L19.2332132,35.232978 Z M15.6745635,8.14193086 L12.3047015,8.14193086 L12.3047015,29.3333597 C14.0793067,29.5882232 15.759518,29.8336473 18.2892743,29.8336473 C21.4986666,29.8336473 23.6130898,29.1634507 24.8874074,28.2289512 C26.1522855,27.303891 26.8319215,25.8691038 26.8319215,23.8396352 C26.8319215,21.0550153 24.9629225,19.3653647 22.6880297,18.6857286 L22.6880297,18.5158196 C24.5475894,18.185441 25.8030281,16.5052297 26.2278006,13.3619131 C26.746967,10.0770056 27.2378153,8.8026881 27.5776333,8.14193086 L24.0284229,8.14193086 C23.5375747,8.8026881 23.0278477,10.7472023 22.6030752,13.5412615 C22.1027875,16.2503662 20.7340761,17.2509415 18.0438502,17.2509415 L15.6745635,17.2509415 L15.6745635,8.14193086 L15.6745635,8.14193086 Z M15.6745635,19.8750917 L18.1288047,19.8750917 C20.9134245,19.8750917 23.2732718,20.8945457 23.2732718,23.4998171 C23.2732718,25.3593768 21.9139998,27.2189365 18.1288047,27.2189365 C17.0243961,27.2189365 16.269245,27.133982 15.6745635,27.0490275 L15.6745635,19.8750917 L15.6745635,19.8750917 Z" id="path3045"></path>
                        </g>
                    </g>
                </g>
            </g>
        </g>
    </g>
</svg>