<?xml version="1.0" encoding="UTF-8" standalone="no"?>
<svg width="980px" height="200px" viewBox="0 0 980 200" version="1.1" xmlns="http://www.w3.org/2000/svg" xmlns:xlink="http://www.w3.org/1999/xlink">
    <!-- Generator: Sketch 40.3 (33839) - http://www.bohemiancoding.com/sketch -->
    <title>Group 2</title>
    <desc>Created with Sketch.</desc>
    <defs></defs>
    <g id="Welcome" stroke="none" stroke-width="1" fill="none" fill-rule="evenodd">
        <g id="Artboard-3" transform="translate(-2068.000000, 0.000000)">
            <g id="Group-2" transform="translate(2068.000000, 0.000000)">
                <g id="Costco-Wholesale">
                    <g id="Layer_1">
                        <path d="M669.53125,45.4296875 C657.929687,31.3671875 637.421875,23.28125 613.320312,23.28125 C587.8125,23.28125 564.882812,31.953125 548.984375,46.015625 L551.5625,29.765625 L544.6875,27.734375 C534.921875,24.84375 524.101562,23.28125 513.359375,23.28125 C494.882812,23.28125 477.226562,28.984375 462.96875,38.3984375 L467.070312,24.8828125 L356.679687,24.8828125 L355.351562,29.21875 C345.546875,25.2734375 334.765625,23.3203125 322.578125,23.3203125 C299.84375,23.3203125 275.273437,32.1484375 262.5,49.140625 C261.679687,47.890625 260.78125,46.6796875 259.804687,45.5078125 C248.203125,31.4453125 227.695312,23.359375 203.59375,23.359375 C178.828125,23.359375 156.484375,31.5234375 140.664062,44.8828125 L146.835937,7.421875 L139.84375,5.390625 C127.890625,1.9140625 114.609375,0.1171875 101.40625,0.1171875 C53.0078125,-2.01227923e-14 8.984375,30.7421875 1.171875,70 C-2.1484375,86.6796875 1.71875,102.890625 12.109375,115.546875 C20.9765625,126.367187 34.0625,134.0625 49.609375,137.96875 L1.6796875,137.96875 L1.6796875,199.257812 L245.820312,199.257812 L246.210937,198.515625 L246.25,199.257812 L275.625,199.257812 L279.609375,192.773437 L278.398437,199.257812 L344.84375,199.257812 L345.820312,194.140625 C351.640625,197.929687 359.21875,199.960937 367.96875,199.960937 C375.78125,199.960937 383.007812,198.359375 389.257812,195.46875 L388.554687,199.257812 L428.125,199.257812 L441.210937,199.257812 L481.640625,199.257812 L481.796875,198.4375 C486.132812,199.414062 490.664062,200 495,200 C497.617187,200 500.351562,199.765625 503.046875,199.296875 L538.554687,199.296875 L541.171875,193.710937 L543.554687,193.710937 L544.257812,199.296875 L560.625,199.296875 L582.578125,199.296875 L600.273437,199.296875 L613.359375,199.296875 L653.789062,199.296875 L659.21875,170.625 L657.226562,170.625 L657.96875,166.679687 L659.414062,166.679687 L664.882812,138.007812 L661.835937,138.007812 C664.296875,135.78125 666.09375,132.890625 666.71875,129.609375 C667.460937,125.742187 666.445312,121.796875 663.945312,118.789062 C663.28125,118.007812 662.539062,117.34375 661.757812,116.71875 C670.46875,107.8125 676.484375,96.9921875 678.828125,84.84375 C681.71875,69.921875 678.515625,56.2890625 669.53125,45.4296875 L669.53125,45.4296875 Z M606.132812,168.476562 L602.773438,168.476562 L607.851562,141.796875 C609.023438,141.640625 610.15625,141.484375 611.289062,141.289062 L606.132812,168.476562 L606.132812,168.476562 Z M527.734375,81.71875 C527.382812,83.515625 527.148437,85.2734375 526.953125,86.9921875 C519.570312,91.953125 512.617187,94.2578125 505.234375,94.2578125 C500.234375,94.2578125 495.898437,92.6171875 493.632812,89.8828125 C492.34375,88.3203125 491.914062,86.6015625 492.304687,84.5703125 C493.632812,77.734375 502.890625,71.7578125 512.148437,71.7578125 C517.929687,71.7578125 523.359375,73.7890625 528.671875,77.96875 C528.359375,79.21875 528.007812,80.4296875 527.734375,81.71875 L527.734375,81.71875 Z M535.234375,137.96875 L531.640625,143.90625 L528.632812,142.226563 C526.640625,141.132813 524.53125,140.273438 522.34375,139.53125 C523.945312,139.140625 525.429688,138.710938 526.757812,138.242188 L530.976562,136.71875 L535.117187,118.59375 C535.664062,119.375 536.210937,120.15625 536.835938,120.898438 C543.085937,128.4375 552.070312,134.21875 562.929687,137.929688 L535.234375,137.96875 L535.234375,137.96875 L535.234375,137.96875 Z M571.835938,140.507813 L570.390625,148.046875 L568.398438,139.648438 C569.53125,139.960937 570.664062,140.234375 571.835938,140.507813 L571.835938,140.507813 Z M606.953125,72.5390625 C611.445312,72.5390625 614.921875,73.75 616.71875,75.8984375 C618.359375,77.890625 618.320312,80.4296875 617.96875,82.2265625 C616.523437,89.609375 608.945312,94.765625 599.492187,94.765625 C594.882812,94.765625 591.25,93.5546875 589.53125,91.4453125 C588.320312,89.9609375 587.96875,87.9296875 588.476562,85.3125 C589.6875,78.984375 596.445312,72.5390625 606.953125,72.5390625 L606.953125,72.5390625 Z M399.0625,143.476562 C397.773438,142.617187 396.367188,141.835937 394.882812,141.132812 L399.492188,141.132812 L399.0625,143.476562 L399.0625,143.476562 Z M373.671875,168.476562 C373.085937,169.023437 372.109375,169.375 370.976562,169.414062 C371.523438,168.90625 372.460937,168.515625 373.671875,168.476562 L373.671875,168.476562 Z M366.445312,73.2421875 L360.976562,91.2890625 C360.625,86.484375 359.101562,82.109375 356.484375,78.203125 C355.390625,76.6015625 354.101562,75.15625 352.695312,73.7890625 L366.445312,73.2421875 L366.445312,73.2421875 Z M208.242187,82.2265625 C206.796875,89.609375 199.21875,94.765625 189.765625,94.765625 C185.15625,94.765625 181.523437,93.5546875 179.804687,91.4453125 C178.59375,89.9609375 178.242187,87.9296875 178.75,85.3125 C179.960937,78.9453125 186.71875,72.5 197.265625,72.5 C201.757812,72.5 205.234375,73.7109375 207.03125,75.859375 C208.671875,77.890625 208.59375,80.46875 208.242187,82.2265625 L208.242187,82.2265625 Z M271.601562,140.9375 L271.40625,141.328125 L271.367188,140.898438 C271.484375,140.898438 271.523438,140.898438 271.601562,140.9375 L271.601562,140.9375 Z M353.164062,116.875 L346.757812,137.96875 L322.148438,137.96875 C334.765625,133.828125 346.015625,126.875 353.164062,116.875 L353.164062,116.875 Z M355.859375,141.132812 L357.226563,141.132812 C356.71875,141.328125 356.210938,141.5625 355.742188,141.796875 L355.859375,141.132812 L355.859375,141.132812 Z M91.328125,85.8203125 C84.296875,85.8203125 78.2421875,83.515625 75.078125,79.6484375 C73.2421875,77.421875 72.6171875,74.9609375 73.203125,72.109375 C75.0390625,62.9296875 87.265625,55.15625 99.921875,55.15625 C108.476562,55.15625 116.367187,58.359375 124.101562,64.921875 C122.070312,68.75 120.429687,72.734375 119.257812,76.9140625 C109.804687,82.9296875 100.898437,85.8203125 91.328125,85.8203125 L91.328125,85.8203125 Z M235.9375,129.296875 L243.90625,132.890625 C248.320313,134.882813 253.242188,136.5625 258.359375,138.007813 L243.515625,138.007813 L241.914062,141.210938 L241.71875,138.007813 L216.015625,138.007813 C223.242188,135.78125 229.921875,132.851562 235.9375,129.296875 L235.9375,129.296875 Z M430.625,168.476562 L436.40625,138.007812 L408.28125,138.007812 L428.007813,73.046875 L434.023438,73.28125 C432.929688,76.25 431.992188,79.2578125 431.367188,82.3828125 C428.554688,96.875 431.953125,110.859375 440.976563,121.757813 C446.914063,128.945312 455.039063,134.414062 464.570313,137.96875 L439.765625,137.96875 L433.984375,168.4375 L430.625,168.476562 L430.625,168.476562 L430.625,168.476562 Z M117.34375,135.703125 L121.5625,134.21875 L125.273438,118.476562 C125.859375,119.296875 126.40625,120.15625 127.070313,120.9375 C133.320312,128.476562 142.304688,134.257812 153.125,137.96875 L108.320312,137.96875 C111.679688,137.34375 114.804688,136.601562 117.34375,135.703125 L117.34375,135.703125 Z M625.742188,137.96875 C629.375,136.835938 632.890625,135.546875 636.25,134.0625 C636.757812,135.234375 637.34375,136.40625 638.164063,137.382812 C638.359375,137.578125 638.59375,137.773438 638.75,137.96875 L625.742188,137.96875 L625.742188,137.96875 Z" id="Shape" fill="#FFFFFF"></path>
                        <g id="Group" transform="translate(7.812500, 8.203125)">
                            <path d="M226.210938,138.007812 L227.890625,164.804688 L228.320313,164.804688 C229.21875,162.070313 230.15625,159.21875 231.523438,156.523438 L240.742188,138.007812 L255.742188,138.007812 L258.007812,164.804688 L258.4375,164.804688 C259.21875,162.1875 260.117188,159.453125 261.289062,156.875 L270.3125,138.007813 L290.664062,138.007813 L263.125,182.890625 L246.054688,182.890625 L244.53125,158.476563 L243.90625,158.476563 C243.242188,160.820313 242.695312,163.046875 241.601563,165.273438 L232.8125,182.890625 L216.171875,182.890625 L205.820312,138.007813 L226.210938,138.007813 L226.210938,138.007812 Z" id="Shape" fill="#005DAA"></path>
                            <polygon id="Shape" fill="#005DAA" points="289.296875 138.007812 308.164062 138.007812 305.3125 153.125 317.304688 153.125 320.195312 138.007812 339.0625 138.007812 330.546875 182.890625 311.679688 182.890625 314.648438 167.304688 302.65625 167.304688 299.6875 182.890625 280.820312 182.890625"></polygon>
                            <path d="M394.257813,160.546875 C391.523438,174.960938 376.523438,183.59375 360.078125,183.59375 C343.632813,183.59375 331.914063,174.960938 334.648438,160.546875 C337.34375,146.445312 352.5,137.265625 368.867188,137.265625 C385.234375,137.265625 396.953125,146.445312 394.257813,160.546875 L394.257813,160.546875 Z M354.375,160.78125 C353.398438,165.898438 356.875,169.414062 362.8125,169.414062 C368.75,169.414062 373.554688,165.898438 374.53125,160.78125 C375.429688,156.015625 372.34375,152.03125 366.132813,152.03125 C359.882813,152.03125 355.273438,156.015625 354.375,160.78125 L354.375,160.78125 Z" id="Shape" fill="#005DAA"></path>
                            <polygon id="Shape" fill="#005DAA" points="398.554688 138.007812 418.125 138.007812 412.34375 168.476562 428.789062 168.476562 426.054688 182.890625 390.039062 182.890625"></polygon>
                            <path d="M475.078125,166.796875 L475.9375,167.460937 C479.023438,169.726562 482.851563,171.5625 487.382813,171.5625 C489.296875,171.5625 492.5,170.898437 492.890625,168.867188 C493.28125,166.835938 490.742188,166.679687 489.023438,166.367188 L485.195312,165.78125 C477.773438,164.648438 472.070312,160.898438 473.398437,153.867188 C475.429688,143.203125 488.203125,137.265625 499.921875,137.265625 C506.054688,137.265625 511.484375,138.515625 516.25,141.210938 L508.789063,152.695312 C505.78125,150.78125 502.304688,149.296875 498.085938,149.296875 C496.367187,149.296875 493.75,149.84375 493.4375,151.679688 C493.125,153.359375 495.507812,153.59375 496.953125,153.867188 L501.210938,154.6875 C509.179688,156.25 514.492188,159.921875 513.046875,167.539062 C511.015625,178.242188 498.28125,183.554688 486.640625,183.554688 C479.84375,183.554688 472.304688,181.992188 466.71875,179.453125 L475.078125,166.796875 L475.078125,166.796875 Z" id="Shape" fill="#005DAA"></path>
                            <path d="M542.34375,166.640625 L541.5625,158.710938 C541.367188,156.796875 541.367188,154.84375 541.367188,152.929688 L540.664062,152.929688 L534.492188,166.640625 L542.34375,166.640625 L542.34375,166.640625 Z M525.3125,182.890625 L504.609375,182.890625 L531.875,138.007812 L553.515625,138.007812 L564.21875,182.890625 L543.515625,182.890625 L542.8125,177.304688 L528.007812,177.304688 L525.3125,182.890625 L525.3125,182.890625 Z" id="Shape" fill="#005DAA"></path>
                            <polygon id="Shape" fill="#005DAA" points="571.09375 138.007812 590.664063 138.007812 584.882813 168.476562 601.328125 168.476562 598.59375 182.890625 562.578125 182.890625"></polygon>
                            <polygon id="Shape" fill="#005DAA" points="610.703125 138.007812 646.953125 138.007812 644.609375 150.273438 628.125 150.273438 627.304688 154.570312 642.382812 154.570312 640.15625 166.25 625.078125 166.25 624.257812 170.664062 641.328125 170.664062 638.984375 182.929687 602.1875 182.929687"></polygon>
                            <g id="Shape" fill="#E31837">
                                <polygon points="345.117188 57.3046875 369.84375 56.3671875 349.101562 124.726563 393.4375 124.726563 414.179688 56.3671875 438.359375 57.3046875 448.203125 24.84375 354.960938 24.84375"></polygon>
                                <path d="M253.28125,75.078125 C247.070313,107.109375 213.085938,126.328125 175.859375,126.328125 C138.632813,126.328125 112.070313,107.109375 118.28125,75.078125 C124.335938,43.671875 158.710938,23.28125 195.78125,23.28125 C232.851563,23.28125 259.335938,43.671875 253.28125,75.078125 L253.28125,75.078125 Z M162.851563,75.5859375 C160.664063,86.9921875 168.515625,94.8046875 181.953125,94.8046875 C195.390625,94.8046875 206.289063,86.9921875 208.476562,75.5859375 C210.507812,65 203.515625,56.1328125 189.414062,56.1328125 C175.351563,56.1328125 164.921875,65 162.851563,75.5859375 L162.851563,75.5859375 Z"></path>
                                <path d="M239.492187,117.1875 C252.148437,122.890625 269.296875,126.328125 284.648438,126.328125 C311.015625,126.328125 339.84375,114.53125 344.453125,90.703125 C347.734375,73.75 335.742188,65.546875 317.617188,62.109375 L307.929688,60.2734375 C304.648438,59.609375 299.257812,59.0625 299.960938,55.3515625 C300.742188,51.25 306.640625,50.0390625 310.546875,50.0390625 C320.078125,50.0390625 328.046875,53.359375 334.804688,57.578125 L351.71875,32.03125 C340.898438,26.0546875 328.632812,23.28125 314.726562,23.28125 C288.164062,23.28125 259.21875,36.5234375 254.648438,60.234375 C251.640625,75.859375 264.570312,84.21875 281.40625,86.71875 L290.039062,88.046875 C293.945312,88.7109375 299.726562,89.1015625 298.828125,93.59375 C297.96875,98.0859375 290.703125,99.5703125 286.328125,99.5703125 C276.132812,99.5703125 267.382812,95.46875 260.429688,90.4296875 L258.4375,88.984375 L239.492187,117.1875 L239.492187,117.1875 Z"></path>
                                <path d="M534.492188,27.3828125 C525.625,24.7265625 515.546875,23.28125 505.507812,23.28125 C469.726562,23.28125 437.226562,46.6015625 431.601562,75.7421875 C426.09375,104.21875 449.023437,126.328125 483.789062,126.328125 C491.71875,126.328125 508.4375,125.117188 516.132812,122.34375 L524.648437,85 C516.40625,90.703125 507.65625,94.2578125 497.460937,94.2578125 C484.179687,94.2578125 474.335937,85.78125 476.484375,74.8046875 C478.59375,63.9453125 491.09375,55.3515625 504.375,55.3515625 C514.414062,55.3515625 522.421875,60 528.476562,65.4296875 L534.492188,27.3828125 L534.492188,27.3828125 Z"></path>
                                <path d="M605.507812,23.28125 C568.4375,23.28125 534.0625,43.671875 528.007812,75.078125 C521.796875,107.109375 548.359375,126.328125 585.585937,126.328125 C622.8125,126.328125 656.796875,107.109375 662.96875,75.078125 C669.0625,43.671875 642.578125,23.28125 605.507812,23.28125 L605.507812,23.28125 Z M599.140625,56.1328125 C613.203125,56.1328125 620.234375,65 618.203125,75.5859375 C616.015625,86.9921875 605.117188,94.8046875 591.679688,94.8046875 C578.242188,94.8046875 570.390625,86.9921875 572.578125,75.5859375 C574.609375,65 585.078125,56.1328125 599.140625,56.1328125 L599.140625,56.1328125 Z"></path>
                                <path d="M129.726563,4.9609375 C118.671875,1.7578125 106.09375,0 93.59375,0 C48.984375,0 8.4375,28.1640625 1.40625,63.3984375 C-5.46875,97.8125 23.0859375,124.570312 66.484375,124.570312 C76.3671875,124.570312 97.265625,123.125 106.796875,119.765625 L117.421875,74.609375 C107.1875,81.484375 96.2109375,85.8203125 83.4765625,85.8203125 C66.9140625,85.8203125 54.6484375,75.5859375 57.3046875,62.265625 C59.921875,49.140625 75.546875,38.7109375 92.0703125,38.7109375 C104.570313,38.7109375 114.570313,44.3359375 122.148438,50.8984375 L129.726563,4.9609375 L129.726563,4.9609375 Z"></path>
                                <path d="M635.703125,119.882813 C636.367188,116.40625 640.273438,113.59375 644.492188,113.59375 C648.671875,113.59375 651.523438,116.40625 650.859375,119.882813 C650.195313,123.398438 646.289063,126.210938 642.070313,126.210938 C637.851563,126.210938 635.039063,123.398438 635.703125,119.882813 L635.703125,119.882813 Z M648.867188,119.882812 C649.414063,117.070312 647.382813,115.234375 644.140625,115.234375 C640.859375,115.234375 638.164063,117.070313 637.65625,119.882812 C637.109375,122.695313 639.0625,124.570312 642.382813,124.570312 C645.625,124.53125 648.359375,122.695313 648.867188,119.882812 L648.867188,119.882812 Z M646.171875,123.164062 L644.21875,123.164062 L642.96875,120.351562 L641.679688,120.351562 L641.132812,123.164062 L639.453125,123.164062 L640.703125,116.5625 L644.53125,116.5625 C646.210938,116.5625 647.148438,117.03125 646.835938,118.59375 C646.601563,119.726563 645.742188,120.3125 644.6875,120.390625 L646.171875,123.164062 L646.171875,123.164062 Z M643.75,119.101562 C644.570312,119.101562 645.3125,119.101562 645.429688,118.398438 C645.546875,117.8125 644.804688,117.8125 643.984375,117.8125 L642.1875,117.8125 L641.953125,119.101562 L643.75,119.101562 L643.75,119.101562 Z"></path>
                            </g>
                            <polygon id="Shape" fill="#005DAA" points="4.4921875 182.96875 212.070312 182.96875 212.03125 182.890625 211.875 182.890625 209.257813 171.445312 4.4921875 171.445312"></polygon>
                            <polygon id="Shape" fill="#005DAA" points="4.4921875 166.640625 208.125 166.640625 205.46875 155.15625 4.4921875 155.15625"></polygon>
                            <polygon id="Shape" fill="#005DAA" points="4.4921875 150.234375 204.296875 150.234375 203.398438 146.054687 201.5625 138.085938 4.4921875 138.085938"></polygon>
                            <polygon id="Shape" fill="#005DAA" points="438.203125 138.007812 474.414062 138.007812 472.070312 150.273438 455.585938 150.273438 454.765625 154.570312 469.84375 154.570312 467.617187 166.25 452.539062 166.25 451.71875 170.664062 468.789062 170.664062 466.445312 182.929687 429.6875 182.929687"></polygon>
                        </g>
                    </g>
                </g>
                <g id="Sam's-Club" transform="translate(780.000000, 0.000000)" fill="#005291">
                    <g id="Layer_1">
                        <g id="Group">
                            <polygon id="Shape" points="194.216867 94.4578313 56.4658635 156.425703 99.9196787 199.879518 199.799197 100"></polygon>
                            <path d="M75.1004016,131.325301 C73.7751004,129.196787 68.4738956,126.947791 59.7590361,130.883534 C52.248996,134.257028 47.3092369,139.759036 49.7188755,145.100402 C52.0883534,150.401606 59.1566265,150.522088 66.9076305,147.028112 C75.3012048,143.253012 77.1485944,139.036145 76.8674699,135.301205 L70.7630522,138.032129 C70.8433735,139.638554 68.8353414,142.369478 65.5823293,143.815261 C61.5662651,145.62249 57.8313253,145.100402 56.4658635,142.088353 C54.939759,138.634538 58.313253,135.662651 61.2851406,134.337349 C65.1807229,132.570281 67.6706827,133.092369 68.9558233,134.056225 L75.1004016,131.325301 L75.1004016,131.325301 L75.1004016,131.325301 Z" id="Shape"></path>
                            <polygon id="Shape" points="90.8433735 117.389558 84.497992 120.240964 91.3654618 135.542169 112.128514 126.184739 110.682731 122.971888 96.3052209 129.477912"></polygon>
                            <path d="M140.160643,95.1807229 L133.574297,98.1526104 L137.831325,107.590361 C138.674699,109.437751 137.831325,111.124498 133.614458,112.971888 C130.763052,114.257028 128.353414,114.216867 127.389558,112.088353 L123.212851,102.811245 L116.626506,105.783133 L121.204819,115.903614 C121.967871,117.389558 123.13253,118.353414 125.140562,118.594378 C128.433735,118.915663 132.570281,117.46988 135.261044,116.26506 C142.610442,112.971888 146.465863,109.156627 144.658635,105.100402 L140.160643,95.1807229 L140.160643,95.1807229 L140.160643,95.1807229 Z" id="Shape"></path>
                            <path d="M160.522088,104.417671 L153.654618,89.1164659 L167.871486,82.7309237 C175.02008,79.5180723 177.911647,81.0441767 178.634538,82.6104418 C179.598394,84.7389558 178.875502,85.8634538 177.751004,86.7871486 C180.240964,86.2248996 181.807229,87.1485944 182.650602,89.0361446 C183.212851,90.2409639 182.730924,91.8473896 181.566265,93.3333333 C180.281124,94.939759 178.915663,96.184739 172.971888,98.875502 L160.522088,104.417671 L160.522088,104.417671 L160.522088,104.417671 Z M163.373494,95.060241 L165.02008,98.7550201 L172.168675,95.5421687 C175.140562,94.2168675 176.706827,93.1325301 176.024096,91.5662651 C175.421687,90.2409639 173.012048,90.6827309 170.803213,91.686747 L163.373494,95.060241 L163.373494,95.060241 L163.373494,95.060241 Z M160.763052,89.3172691 L162.088353,92.2891566 L168.875502,89.2369478 C171.285141,88.1526104 173.052209,86.9879518 172.48996,85.7831325 C171.927711,84.5381526 170.120482,85.1004016 167.349398,86.3453815 L160.763052,89.3172691 L160.763052,89.3172691 L160.763052,89.3172691 Z" id="Shape"></path>
                            <path d="M26.5060241,126.506024 C27.1084337,126.465863 27.751004,126.385542 28.4337349,126.305221 C30.2008032,126.104418 31.9277108,125.582329 33.4136546,124.939759 C36.5863454,123.534137 37.9518072,121.485944 37.0682731,119.518072 C36.184739,117.550201 34.939759,117.309237 29.1164659,118.232932 C24.0562249,119.076305 20.6827309,119.036145 17.9919679,118.032129 L26.5060241,126.506024 L26.5060241,126.506024 L26.5060241,126.506024 Z" id="Shape"></path>
                            <path d="M146.746988,46.9879518 C145.421687,47.2690763 144.176707,47.6706827 142.971888,48.1927711 C139.678715,49.6787149 138.313253,51.5662651 139.196787,53.5341365 C139.879518,55.1004016 141.004016,55.4618474 143.534137,55.0200803 C148.273092,54.2570281 150.200803,54.0160643 152.48996,53.935743 C152.891566,53.935743 153.293173,53.935743 153.694779,53.9759036 L146.746988,46.9879518 L146.746988,46.9879518 L146.746988,46.9879518 Z" id="Shape"></path>
                            <path d="M165.301205,65.5421687 L174.297189,74.5381526 L36.5863454,136.546185 L34.6987952,134.658635 C35.8634538,134.297189 37.0281124,133.895582 38.0722892,133.413655 C46.4257028,129.678715 50.0803213,121.566265 46.746988,114.096386 C44.5381526,109.156627 40.4417671,106.626506 35.1004016,106.706827 C32.7710843,106.827309 30.8835341,107.028112 26.1445783,107.791165 C23.6144578,108.232932 22.5301205,107.831325 21.8072289,106.305221 C20.9236948,104.337349 22.2891566,102.449799 25.5823293,100.963855 C26.9477912,100.361446 28.3935743,99.9196787 29.9196787,99.6385542 C33.4939759,99.0361446 35.1004016,99.2369478 38.9558233,100.803213 L33.8554217,89.4779116 C28.6746988,88.7951807 24.6586345,89.3172691 20.2008032,91.3253012 C11.4457831,95.2610442 7.67068273,103.172691 10.9638554,110.883534 L0.200803213,100.120482 L100.080321,0.240963855 L138.11245,38.2730924 C137.951807,38.3534137 137.791165,38.3935743 137.630522,38.4738956 C128.75502,42.4497992 125.02008,50.5220884 128.514056,58.3534137 C129.437751,60.4417671 130.883534,62.2088353 132.650602,63.5341365 C135.742972,65.9437751 139.558233,66.4658635 146.546185,65.3012048 C152.369478,64.4176707 153.614458,64.6184739 154.497992,66.5863454 C155.381526,68.5542169 154.016064,70.6024096 150.843373,72.0080321 C149.35743,72.6907631 147.630522,73.1726908 145.863454,73.373494 C142.369478,73.8554217 140.562249,73.6947791 136.465863,72.0883534 L141.124498,82.4096386 C142.369478,82.6506024 143.293173,82.7309237 143.935743,82.7710843 C147.349398,83.0120482 151.88755,82.1285141 155.461847,80.5220884 C162.248996,77.5502008 165.943775,71.6465863 165.301205,65.5421687 L165.301205,65.5421687 L165.301205,65.5421687 Z M59.0361446,112.48996 L71.3253012,106.947791 L77.5903614,114.497992 L88.313253,109.678715 L58.9959839,75.1405622 L43.2128514,82.248996 L50.0401606,126.827309 L59.9598394,122.369478 L59.0361446,112.48996 L59.0361446,112.48996 L59.0361446,112.48996 Z M113.13253,50.8032129 L97.5903614,57.7911647 L105.823293,90.4016064 L85.7028112,63.1325301 L70.7630522,69.8393574 L88.6345382,109.518072 L98.6345382,105.02008 L85.9437751,76.8674699 L104.899598,102.208835 L114.859438,97.751004 L108.835341,66.5461847 L121.566265,94.8192771 L131.004016,90.562249 L113.13253,50.8032129 L113.13253,50.8032129 L113.13253,50.8032129 Z M114.578313,45.5421687 C115.381526,47.3092369 115.62249,47.8714859 116.305221,49.6385542 C117.429719,52.5702811 118.313253,54.8192771 118.915663,56.9879518 C119.39759,58.5943775 119.718876,60.1606426 119.959839,61.8473896 L125.421687,58.9558233 C125.180723,53.815261 124.538153,50.6827309 123.654618,47.8714859 C123.092369,46.1044177 122.449799,44.4578313 121.726908,42.5301205 L114.578313,45.5421687 L114.578313,45.5421687 L114.578313,45.5421687 Z" id="Shape"></path>
                            <polygon id="Shape" points="65.62249 99.4779116 55.3012048 87.4698795 57.2289157 103.253012"></polygon>
                        </g>
                    </g>
                </g>
            </g>
        </g>
    </g>
</svg>