<?xml version="1.0" encoding="UTF-8" standalone="no"?>
<svg width="350px" height="400px" viewBox="0 0 350 400" version="1.1" xmlns="http://www.w3.org/2000/svg" xmlns:xlink="http://www.w3.org/1999/xlink">
    <!-- Generator: Sketch 40.3 (33839) - http://www.bohemiancoding.com/sketch -->
    <title>noun_294197_cc</title>
    <desc>Created with Sketch.</desc>
    <defs></defs>
    <g id="Page-1" stroke="none" stroke-width="1" fill="none" fill-rule="evenodd">
        <g id="noun_294197_cc" fill="#FFFFFF">
            <g id="Group">
                <path d="M75,358.541667 L75,387.5 C75,394.404167 69.4041667,400 62.5,400 L25,400 C18.0958333,400 12.5,394.404167 12.5,387.5 L12.5,342.758333 C4.65,338.054167 0,332.225 0,325 L0,275 C0,259.529167 7.02916667,245.695833 18.0666667,236.525 C7.63333333,233.520833 0,223.904167 0,212.5 C0,198.691667 11.1916667,187.5 25,187.5 L41.6666667,187.5 L50,162.5 C62.5,125 100,125 100,125 L125,125 L225,125 L250,125 C250,125 287.5,125 300,162.5 L308.333333,187.5 L325,187.5 C338.808333,187.5 350,198.691667 350,212.5 C350,223.904167 342.366667,233.520833 331.933333,236.525 C342.970833,245.695833 350,259.529167 350,275 L350,325 C350,332.225 345.345833,338.05 337.5,342.758333 L337.5,387.5 C337.5,394.404167 331.904167,400 325,400 L287.5,400 C280.595833,400 275,394.404167 275,387.5 L275,358.541667 C238.991667,362.5 198.625,362.5 175,362.5 C151.375,362.5 111.0125,362.495833 75,358.541667 L75,358.541667 L75,358.541667 Z M81.25,62.5 C84.7,62.5 87.5,59.7 87.5,56.25 C87.5,52.8 84.7,50 81.25,50 C77.8,50 75,52.8 75,56.25 C75,59.7 77.8,62.5 81.25,62.5 L81.25,62.5 L81.25,62.5 Z M87.5,106.25 L87.5,81.25 C87.5,77.8 84.7,75 81.25,75 C77.8,75 75,77.8 75,81.25 L75,106.25 C75,109.7 77.8,112.5 81.25,112.5 C84.7,112.5 87.5,109.7 87.5,106.25 L87.5,106.25 L87.5,106.25 Z M118.75,100 C122.2,100 125,102.8 125,106.25 C125,109.7 122.2,112.5 118.75,112.5 C115.3,112.5 112.5,109.7 112.5,106.25 C112.5,102.8 115.3,100 118.75,100 L118.75,100 L118.75,100 Z M125,56.25 L125,81.25 C125,84.7 122.2,87.5 118.75,87.5 C115.3,87.5 112.5,84.7 112.5,81.25 L112.5,56.25 C112.5,52.8 115.3,50 118.75,50 C122.2,50 125,52.8 125,56.25 L125,56.25 L125,56.25 Z M156.25,62.5 C159.7,62.5 162.5,59.7 162.5,56.25 C162.5,52.8 159.7,50 156.25,50 C152.8,50 150,52.8 150,56.25 C150,59.7 152.8,62.5 156.25,62.5 L156.25,62.5 L156.25,62.5 Z M162.5,106.25 L162.5,81.25 C162.5,77.8 159.7,75 156.25,75 C152.8,75 150,77.8 150,81.25 L150,106.25 C150,109.7 152.8,112.5 156.25,112.5 C159.7,112.5 162.5,109.7 162.5,106.25 L162.5,106.25 L162.5,106.25 Z M193.75,100 C197.2,100 200,102.8 200,106.25 C200,109.7 197.2,112.5 193.75,112.5 C190.3,112.5 187.5,109.7 187.5,106.25 C187.5,102.8 190.3,100 193.75,100 L193.75,100 L193.75,100 Z M200,56.25 L200,81.25 C200,84.7 197.2,87.5 193.75,87.5 C190.3,87.5 187.5,84.7 187.5,81.25 L187.5,56.25 C187.5,52.8 190.3,50 193.75,50 C197.2,50 200,52.8 200,56.25 L200,56.25 L200,56.25 Z M231.25,62.5 C234.7,62.5 237.5,59.7 237.5,56.25 C237.5,52.8 234.7,50 231.25,50 C227.8,50 225,52.8 225,56.25 C225,59.7 227.8,62.5 231.25,62.5 L231.25,62.5 L231.25,62.5 Z M237.5,106.25 L237.5,81.25 C237.5,77.8 234.7,75 231.25,75 C227.8,75 225,77.8 225,81.25 L225,106.25 C225,109.7 227.8,112.5 231.25,112.5 C234.7,112.5 237.5,109.7 237.5,106.25 L237.5,106.25 L237.5,106.25 Z M268.75,100 C272.2,100 275,102.8 275,106.25 C275,109.7 272.2,112.5 268.75,112.5 C265.3,112.5 262.5,109.7 262.5,106.25 C262.5,102.8 265.3,100 268.75,100 L268.75,100 L268.75,100 Z M275,56.25 L275,81.25 C275,84.7 272.2,87.5 268.75,87.5 C265.3,87.5 262.5,84.7 262.5,81.25 L262.5,56.25 C262.5,52.8 265.3,50 268.75,50 C272.2,50 275,52.8 275,56.25 L275,56.25 L275,56.25 Z M268.75,0 C279.104167,0 287.5,8.39583333 287.5,18.75 L287.5,31.25 C287.5,34.7 284.7,37.5 281.25,37.5 L68.75,37.5 C65.3,37.5 62.5,34.7 62.5,31.25 L62.5,18.75 C62.5,8.39583333 70.8958333,0 81.25,0 L137.5,0 L212.5,0 L268.75,0 L268.75,0 L268.75,0 Z M307.658333,225 L288.141667,166.454167 C284.241667,154.75 276.845833,146.0625 265.475,141.170833 C261.304167,139.379167 254.633333,137.5 250,137.5 L100,137.5 C95.3666667,137.5 88.6958333,139.379167 84.525,141.170833 C73.1583333,146.058333 65.7625,154.745833 61.8583333,166.454167 L42.3416667,225 L50,225 L62.5,225 L287.5,225 L300,225 L307.658333,225 L307.658333,225 L307.658333,225 Z M231.25,300 L118.75,300 C115.3,300 112.5,302.8 112.5,306.25 C112.5,309.7 115.3,312.5 118.75,312.5 L231.25,312.5 C234.7,312.5 237.5,309.7 237.5,306.25 C237.5,302.8 234.7,300 231.25,300 L231.25,300 L231.25,300 Z M300,262.5 C286.191667,262.5 275,273.691667 275,287.5 C275,301.308333 286.191667,312.5 300,312.5 C313.808333,312.5 325,301.308333 325,287.5 C325,273.691667 313.808333,262.5 300,262.5 L300,262.5 L300,262.5 Z M50,262.5 C36.1916667,262.5 25,273.691667 25,287.5 C25,301.308333 36.1916667,312.5 50,312.5 C63.8083333,312.5 75,301.308333 75,287.5 C75,273.691667 63.8083333,262.5 50,262.5 L50,262.5 L50,262.5 Z M106.25,275 C102.8,275 100,277.8 100,281.25 C100,284.7 102.8,287.5 106.25,287.5 L243.75,287.5 C247.2,287.5 250,284.7 250,281.25 C250,277.8 247.2,275 243.75,275 L106.25,275 L106.25,275 Z" id="Shape"></path>
            </g>
        </g>
    </g>
</svg>