<?xml version="1.0" encoding="UTF-8" standalone="no"?>
<svg width="429px" height="400px" viewBox="0 0 429 400" version="1.1" xmlns="http://www.w3.org/2000/svg" xmlns:xlink="http://www.w3.org/1999/xlink">
    <!-- Generator: Sketch 40.3 (33839) - http://www.bohemiancoding.com/sketch -->
    <title>noun_749446_cc</title>
    <desc>Created with Sketch.</desc>
    <defs></defs>
    <g id="Page-1" stroke="none" stroke-width="1" fill="none" fill-rule="evenodd">
        <g id="noun_749446_cc" fill="#FFFFFF">
            <g id="Group">
                <path d="M408.005102,356.669388 L402.622449,356.669388 L402.622449,17.7795918 C402.622449,8.62040816 395.086735,0.53877551 385.397959,0.53877551 C375.709184,0.53877551 368.173469,8.08163265 368.173469,17.7795918 L368.173469,63.0367347 L320.267857,63.0367347 L320.267857,56.0326531 C320.267857,47.4122449 313.270408,40.4081633 304.658163,40.4081633 C300.890306,40.4081633 297.122449,42.0244898 294.431122,44.1795918 C291.739796,41.4857143 287.971939,40.4081633 284.204082,40.4081633 C280.436224,40.4081633 276.668367,42.0244898 273.977041,44.1795918 C271.285714,41.4857143 267.517857,40.4081633 263.75,40.4081633 C255.137755,40.4081633 248.140306,47.4122449 248.140306,56.0326531 L248.140306,63.0367347 L201.84949,63.0367347 L201.84949,56.0326531 C201.84949,47.4122449 194.852041,40.4081633 186.239796,40.4081633 C182.471939,40.4081633 178.704082,42.0244898 176.012755,44.1795918 C173.321429,41.4857143 169.553571,40.4081633 165.785714,40.4081633 C162.017857,40.4081633 158.788265,43.1020408 156.096939,45.2571429 C153.405612,42.5632653 149.637755,41.4857143 145.869898,41.4857143 C142.102041,41.4857143 138.334184,43.1020408 135.642857,45.2571429 C132.951531,42.5632653 129.183673,41.4857143 125.415816,41.4857143 C121.647959,41.4857143 117.880102,43.1020408 115.188776,45.2571429 C112.497449,42.5632653 108.729592,41.4857143 104.961735,41.4857143 C101.193878,41.4857143 97.4260204,43.1020408 94.7346939,45.2571429 C92.0433673,42.5632653 88.2755102,41.4857143 84.5076531,41.4857143 C80.7397959,41.4857143 76.9719388,43.1020408 74.2806122,45.2571429 C71.5892857,42.5632653 67.8214286,41.4857143 64.0535714,41.4857143 C62.4387755,41.4857143 60.8239796,42.0244898 59.2091837,42.0244898 L59.2091837,17.7795918 C59.2091837,8.62040816 51.6734694,0.53877551 41.9846939,0.53877551 C32.2959184,0.53877551 24.7602041,8.08163265 24.7602041,17.7795918 L24.7602041,356.130612 L22.0688776,356.130612 C10.2270408,356.130612 0.538265306,365.828571 0.538265306,377.681633 C0.538265306,389.534694 10.2270408,399.232653 22.0688776,399.232653 L407.466837,399.232653 C419.308673,399.232653 428.997449,389.534694 428.997449,377.681633 C428.997449,365.828571 419.846939,356.669388 408.005102,356.669388 L408.005102,356.669388 Z M378.938776,17.7795918 C378.938776,14.5469388 381.630102,11.3142857 385.397959,11.3142857 C389.165816,11.3142857 391.857143,14.0081633 391.857143,17.7795918 L391.857143,356.130612 L379.477041,356.130612 L379.477041,17.7795918 L378.938776,17.7795918 Z M59.747449,356.669388 L59.747449,298.481633 L106.038265,298.481633 L106.038265,305.485714 C106.038265,314.106122 113.035714,321.110204 121.647959,321.110204 C125.415816,321.110204 129.183673,319.493878 131.875,317.338776 C134.566327,320.032653 138.334184,321.110204 142.102041,321.110204 C145.869898,321.110204 149.637755,319.493878 152.329082,317.338776 C155.020408,320.032653 158.788265,321.110204 162.556122,321.110204 C171.168367,321.110204 178.165816,314.106122 178.165816,305.485714 L178.165816,298.481633 L224.456633,298.481633 L224.456633,305.485714 C224.456633,314.106122 231.454082,321.110204 240.066327,321.110204 C243.834184,321.110204 247.602041,319.493878 250.293367,317.338776 C252.984694,320.032653 256.752551,321.110204 260.520408,321.110204 C264.288265,321.110204 268.056122,319.493878 270.747449,317.338776 C273.438776,320.032653 277.206633,321.110204 280.97449,321.110204 C284.742347,321.110204 288.510204,319.493878 291.201531,317.338776 C293.892857,320.032653 297.660714,321.110204 301.428571,321.110204 C305.196429,321.110204 308.964286,319.493878 311.655612,317.338776 C314.346939,320.032653 318.114796,321.110204 321.882653,321.110204 C325.65051,321.110204 329.418367,319.493878 332.109694,317.338776 C334.80102,320.032653 338.568878,321.110204 342.336735,321.110204 C346.104592,321.110204 349.872449,319.493878 352.563776,317.338776 C355.255102,320.032653 359.022959,321.110204 362.790816,321.110204 C364.943878,321.110204 367.096939,320.571429 369.25,319.493878 L369.25,356.669388 L59.747449,356.669388 L59.747449,356.669388 Z M74.2806122,167.559184 C76.9719388,170.253061 80.7397959,171.330612 84.5076531,171.330612 C88.2755102,171.330612 92.0433673,169.714286 94.7346939,167.559184 C97.4260204,170.253061 101.193878,171.330612 104.961735,171.330612 C113.57398,171.330612 120.571429,164.326531 120.571429,155.706122 L120.571429,148.702041 L152.329082,148.702041 L152.329082,155.706122 C152.329082,164.326531 159.326531,171.330612 167.938776,171.330612 C176.55102,171.330612 183.548469,164.326531 183.548469,155.706122 L183.548469,148.702041 L214.767857,148.702041 L214.767857,155.706122 C214.767857,164.326531 221.765306,171.330612 230.377551,171.330612 C234.145408,171.330612 237.913265,169.714286 240.604592,167.559184 C243.295918,170.253061 247.063776,171.330612 250.831633,171.330612 C254.59949,171.330612 258.367347,169.714286 261.058673,167.559184 C263.75,170.253061 267.517857,171.330612 271.285714,171.330612 C275.053571,171.330612 278.821429,169.714286 281.512755,167.559184 C284.204082,170.253061 287.971939,171.330612 291.739796,171.330612 C295.507653,171.330612 299.27551,169.714286 301.966837,167.559184 C304.658163,170.253061 308.42602,171.330612 312.193878,171.330612 C320.806122,171.330612 327.803571,164.326531 327.803571,155.706122 L327.803571,148.702041 L347.181122,148.702041 L347.181122,155.706122 C347.181122,164.326531 354.178571,171.330612 362.790816,171.330612 C364.943878,171.330612 367.096939,170.791837 369.25,169.714286 L369.25,212.816327 L337.492347,212.816327 L337.492347,205.812245 C337.492347,197.191837 330.494898,190.187755 321.882653,190.187755 C318.114796,190.187755 314.346939,191.804082 311.655612,193.959184 C308.964286,191.265306 305.196429,190.187755 301.428571,190.187755 C297.660714,190.187755 293.892857,191.804082 291.201531,193.959184 C288.510204,191.265306 284.742347,190.187755 280.97449,190.187755 C277.206633,190.187755 273.438776,191.804082 270.747449,193.959184 C268.056122,191.265306 264.288265,190.187755 260.520408,190.187755 C256.752551,190.187755 252.984694,191.804082 250.293367,193.959184 C247.602041,191.265306 243.834184,190.187755 240.066327,190.187755 C231.454082,190.187755 224.456633,197.191837 224.456633,205.812245 L224.456633,212.816327 L209.385204,212.816327 L209.385204,205.812245 C209.385204,197.191837 202.387755,190.187755 193.77551,190.187755 C190.007653,190.187755 186.239796,191.804082 183.548469,193.959184 C180.857143,191.265306 177.089286,190.187755 173.321429,190.187755 C169.553571,190.187755 165.785714,191.804082 163.094388,193.959184 C160.403061,191.804082 156.635204,190.187755 152.867347,190.187755 C149.09949,190.187755 145.331633,191.804082 142.640306,193.959184 C139.94898,191.265306 136.181122,190.187755 132.413265,190.187755 C123.80102,190.187755 116.803571,197.191837 116.803571,205.812245 L116.803571,212.816327 L100.117347,212.816327 L100.117347,205.812245 C100.117347,197.191837 93.119898,190.187755 84.5076531,190.187755 C75.8954082,190.187755 68.8979592,197.191837 68.8979592,205.812245 L68.8979592,212.816327 L59.2091837,212.816327 L59.2091837,170.253061 C60.8239796,170.791837 62.4387755,170.791837 64.0535714,170.791837 C68.3596939,171.330612 71.5892857,169.714286 74.2806122,167.559184 L74.2806122,167.559184 Z M80.2015306,155.706122 L80.2015306,131.461224 C80.2015306,128.767347 82.3545918,126.612245 85.0459184,126.612245 C87.7372449,126.612245 89.8903061,128.767347 89.8903061,131.461224 L89.8903061,155.706122 C89.8903061,158.4 87.7372449,160.555102 85.0459184,160.555102 C82.3545918,160.555102 80.2015306,158.4 80.2015306,155.706122 L80.2015306,155.706122 Z M100.655612,155.706122 L100.655612,131.461224 C100.655612,128.767347 102.808673,126.612245 105.5,126.612245 C108.191327,126.612245 110.344388,128.767347 110.344388,131.461224 L110.344388,155.706122 C110.344388,158.4 108.191327,160.555102 105.5,160.555102 C102.808673,160.555102 100.655612,158.4 100.655612,155.706122 L100.655612,155.706122 Z M163.094388,155.706122 L163.094388,131.461224 C163.094388,128.767347 165.247449,126.612245 167.938776,126.612245 C170.630102,126.612245 172.783163,128.767347 172.783163,131.461224 L172.783163,155.706122 C172.783163,158.4 170.630102,160.555102 167.938776,160.555102 C165.247449,160.555102 163.094388,158.4 163.094388,155.706122 L163.094388,155.706122 Z M224.994898,155.706122 L224.994898,131.461224 C224.994898,128.767347 227.147959,126.612245 229.839286,126.612245 C232.530612,126.612245 234.683673,128.767347 234.683673,131.461224 L234.683673,155.706122 C234.683673,158.4 232.530612,160.555102 229.839286,160.555102 C227.147959,160.555102 224.994898,158.4 224.994898,155.706122 L224.994898,155.706122 Z M245.44898,155.706122 L245.44898,131.461224 C245.44898,128.767347 247.602041,126.612245 250.293367,126.612245 C252.984694,126.612245 255.137755,128.767347 255.137755,131.461224 L255.137755,155.706122 C255.137755,158.4 252.984694,160.555102 250.293367,160.555102 C247.602041,160.555102 245.44898,158.4 245.44898,155.706122 L245.44898,155.706122 Z M265.903061,155.706122 L265.903061,131.461224 C265.903061,128.767347 268.056122,126.612245 270.747449,126.612245 C273.438776,126.612245 275.591837,128.767347 275.591837,131.461224 L275.591837,155.706122 C275.591837,158.4 273.438776,160.555102 270.747449,160.555102 C268.056122,160.555102 265.903061,158.4 265.903061,155.706122 L265.903061,155.706122 Z M286.357143,155.706122 L286.357143,131.461224 C286.357143,128.767347 288.510204,126.612245 291.201531,126.612245 C293.892857,126.612245 296.045918,128.767347 296.045918,131.461224 L296.045918,155.706122 C296.045918,158.4 293.892857,160.555102 291.201531,160.555102 C288.510204,160.555102 286.357143,158.4 286.357143,155.706122 L286.357143,155.706122 Z M306.811224,155.706122 L306.811224,131.461224 C306.811224,128.767347 308.964286,126.612245 311.655612,126.612245 C314.346939,126.612245 316.5,128.767347 316.5,131.461224 L316.5,155.706122 C316.5,158.4 314.346939,160.555102 311.655612,160.555102 C308.964286,160.555102 306.811224,158.4 306.811224,155.706122 L306.811224,155.706122 Z M357.408163,155.706122 L357.408163,131.461224 C357.408163,128.767347 359.561224,126.612245 362.252551,126.612245 C364.943878,126.612245 367.096939,128.767347 367.096939,131.461224 L367.096939,155.706122 C367.096939,158.4 364.943878,160.555102 362.252551,160.555102 C359.561224,160.555102 357.408163,158.4 357.408163,155.706122 L357.408163,155.706122 Z M362.252551,265.616327 C358.484694,265.616327 354.716837,267.232653 352.02551,269.387755 C349.334184,266.693878 345.566327,265.616327 341.798469,265.616327 C338.030612,265.616327 334.262755,267.232653 331.571429,269.387755 C328.880102,266.693878 325.112245,265.616327 321.344388,265.616327 C317.576531,265.616327 313.808673,267.232653 311.117347,269.387755 C308.42602,266.693878 304.658163,265.616327 300.890306,265.616327 C297.122449,265.616327 293.354592,267.232653 290.663265,269.387755 C287.971939,266.693878 284.204082,265.616327 280.436224,265.616327 C276.668367,265.616327 272.90051,267.232653 270.209184,269.387755 C267.517857,266.693878 263.75,265.616327 259.982143,265.616327 C256.214286,265.616327 252.446429,267.232653 249.755102,269.387755 C247.063776,266.693878 243.295918,265.616327 239.528061,265.616327 C230.915816,265.616327 223.918367,272.620408 223.918367,281.240816 L223.918367,288.244898 L177.627551,288.244898 L177.627551,281.240816 C177.627551,272.620408 170.630102,265.616327 162.017857,265.616327 C158.25,265.616327 154.482143,267.232653 151.790816,269.387755 C149.09949,266.693878 145.331633,265.616327 141.563776,265.616327 C137.795918,265.616327 134.028061,267.232653 131.336735,269.387755 C128.645408,266.693878 124.877551,265.616327 121.109694,265.616327 C112.497449,265.616327 105.5,272.620408 105.5,281.240816 L105.5,288.244898 L59.2091837,288.244898 L59.2091837,224.130612 L68.8979592,224.130612 L68.8979592,231.134694 C68.8979592,239.755102 75.8954082,246.759184 84.5076531,246.759184 C93.119898,246.759184 100.117347,239.755102 100.117347,231.134694 L100.117347,224.130612 L116.803571,224.130612 L116.803571,231.134694 C116.803571,239.755102 123.80102,246.759184 132.413265,246.759184 C136.181122,246.759184 139.94898,245.142857 142.640306,242.987755 C145.331633,245.681633 149.09949,246.759184 152.867347,246.759184 C156.635204,246.759184 160.403061,245.142857 163.094388,242.987755 C165.785714,245.142857 169.553571,246.759184 173.321429,246.759184 C177.089286,246.759184 180.857143,245.142857 183.548469,242.987755 C186.239796,245.681633 190.007653,246.759184 193.77551,246.759184 C202.387755,246.759184 209.385204,239.755102 209.385204,231.134694 L209.385204,224.130612 L224.456633,224.130612 L224.456633,231.134694 C224.456633,239.755102 231.454082,246.759184 240.066327,246.759184 C243.834184,246.759184 247.602041,245.142857 250.293367,242.987755 C252.984694,245.681633 256.752551,246.759184 260.520408,246.759184 C264.288265,246.759184 268.056122,245.142857 270.747449,242.987755 C273.438776,245.681633 277.206633,246.759184 280.97449,246.759184 C284.742347,246.759184 288.510204,245.142857 291.201531,242.987755 C293.892857,245.681633 297.660714,246.759184 301.428571,246.759184 C305.196429,246.759184 308.964286,245.142857 311.655612,242.987755 C314.346939,245.681633 318.114796,246.759184 321.882653,246.759184 C330.494898,246.759184 337.492347,239.755102 337.492347,231.134694 L337.492347,224.130612 L369.25,224.130612 L369.25,267.232653 C366.558673,266.155102 364.405612,265.616327 362.252551,265.616327 L362.252551,265.616327 Z M366.558673,281.240816 L366.558673,305.485714 C366.558673,308.179592 364.405612,310.334694 361.714286,310.334694 C359.022959,310.334694 356.869898,308.179592 356.869898,305.485714 L356.869898,281.240816 C356.869898,278.546939 359.022959,276.391837 361.714286,276.391837 C364.405612,276.391837 366.558673,278.546939 366.558673,281.240816 L366.558673,281.240816 Z M346.104592,281.240816 L346.104592,305.485714 C346.104592,308.179592 343.951531,310.334694 341.260204,310.334694 C338.568878,310.334694 336.415816,308.179592 336.415816,305.485714 L336.415816,281.240816 C336.415816,278.546939 338.568878,276.391837 341.260204,276.391837 C343.951531,276.391837 346.104592,278.546939 346.104592,281.240816 L346.104592,281.240816 Z M325.65051,281.240816 L325.65051,305.485714 C325.65051,308.179592 323.497449,310.334694 320.806122,310.334694 C318.114796,310.334694 315.961735,308.179592 315.961735,305.485714 L315.961735,281.240816 C315.961735,278.546939 318.114796,276.391837 320.806122,276.391837 C323.497449,276.391837 325.65051,278.546939 325.65051,281.240816 L325.65051,281.240816 Z M305.196429,281.240816 L305.196429,305.485714 C305.196429,308.179592 303.043367,310.334694 300.352041,310.334694 C297.660714,310.334694 295.507653,308.179592 295.507653,305.485714 L295.507653,281.240816 C295.507653,278.546939 297.660714,276.391837 300.352041,276.391837 C303.043367,276.391837 305.196429,278.546939 305.196429,281.240816 L305.196429,281.240816 Z M284.742347,281.240816 L284.742347,305.485714 C284.742347,308.179592 282.589286,310.334694 279.897959,310.334694 C277.206633,310.334694 275.053571,308.179592 275.053571,305.485714 L275.053571,281.240816 C275.053571,278.546939 277.206633,276.391837 279.897959,276.391837 C282.589286,276.391837 284.742347,278.546939 284.742347,281.240816 L284.742347,281.240816 Z M264.288265,281.240816 L264.288265,305.485714 C264.288265,308.179592 262.135204,310.334694 259.443878,310.334694 C256.752551,310.334694 254.59949,308.179592 254.59949,305.485714 L254.59949,281.240816 C254.59949,278.546939 256.752551,276.391837 259.443878,276.391837 C262.135204,276.391837 264.288265,278.546939 264.288265,281.240816 L264.288265,281.240816 Z M243.834184,281.240816 L243.834184,305.485714 C243.834184,308.179592 241.681122,310.334694 238.989796,310.334694 C236.298469,310.334694 234.145408,308.179592 234.145408,305.485714 L234.145408,281.240816 C234.145408,278.546939 236.298469,276.391837 238.989796,276.391837 C241.681122,276.391837 243.834184,278.546939 243.834184,281.240816 L243.834184,281.240816 Z M166.862245,281.240816 L166.862245,305.485714 C166.862245,308.179592 164.709184,310.334694 162.017857,310.334694 C159.326531,310.334694 157.173469,308.179592 157.173469,305.485714 L157.173469,281.240816 C157.173469,278.546939 159.326531,276.391837 162.017857,276.391837 C164.709184,276.391837 166.862245,278.546939 166.862245,281.240816 L166.862245,281.240816 Z M146.408163,281.240816 L146.408163,305.485714 C146.408163,308.179592 144.255102,310.334694 141.563776,310.334694 C138.872449,310.334694 136.719388,308.179592 136.719388,305.485714 L136.719388,281.240816 C136.719388,278.546939 138.872449,276.391837 141.563776,276.391837 C144.255102,276.391837 146.408163,278.546939 146.408163,281.240816 L146.408163,281.240816 Z M125.954082,281.240816 L125.954082,305.485714 C125.954082,308.179592 123.80102,310.334694 121.109694,310.334694 C118.418367,310.334694 116.265306,308.179592 116.265306,305.485714 L116.265306,281.240816 C116.265306,278.546939 118.418367,276.391837 121.109694,276.391837 C123.80102,276.391837 125.954082,278.546939 125.954082,281.240816 L125.954082,281.240816 Z M80.2015306,206.35102 C80.2015306,203.657143 82.3545918,201.502041 85.0459184,201.502041 C87.7372449,201.502041 89.8903061,203.657143 89.8903061,206.35102 L89.8903061,230.595918 C89.8903061,233.289796 87.7372449,235.444898 85.0459184,235.444898 C82.3545918,235.444898 80.2015306,233.289796 80.2015306,230.595918 L80.2015306,206.35102 L80.2015306,206.35102 Z M127.568878,230.595918 L127.568878,206.35102 C127.568878,203.657143 129.721939,201.502041 132.413265,201.502041 C135.104592,201.502041 137.257653,203.657143 137.257653,206.35102 L137.257653,230.595918 C137.257653,233.289796 135.104592,235.444898 132.413265,235.444898 C129.721939,235.444898 127.568878,233.289796 127.568878,230.595918 L127.568878,230.595918 Z M157.711735,230.595918 C157.711735,233.289796 155.558673,235.444898 152.867347,235.444898 C150.17602,235.444898 148.022959,233.289796 148.022959,230.595918 L148.022959,206.35102 C148.022959,203.657143 150.17602,201.502041 152.867347,201.502041 C155.558673,201.502041 157.711735,203.657143 157.711735,206.35102 L157.711735,230.595918 L157.711735,230.595918 Z M168.477041,206.35102 C168.477041,203.657143 170.630102,201.502041 173.321429,201.502041 C176.012755,201.502041 178.165816,203.657143 178.165816,206.35102 L178.165816,230.595918 C178.165816,233.289796 176.012755,235.444898 173.321429,235.444898 C170.630102,235.444898 168.477041,233.289796 168.477041,230.595918 L168.477041,206.35102 L168.477041,206.35102 Z M188.931122,230.595918 L188.931122,206.35102 C188.931122,203.657143 191.084184,201.502041 193.77551,201.502041 C196.466837,201.502041 198.619898,203.657143 198.619898,206.35102 L198.619898,230.595918 C198.619898,233.289796 196.466837,235.444898 193.77551,235.444898 C190.545918,235.444898 188.931122,233.289796 188.931122,230.595918 L188.931122,230.595918 Z M234.683673,230.595918 L234.683673,206.35102 C234.683673,203.657143 236.836735,201.502041 239.528061,201.502041 C242.219388,201.502041 244.372449,203.657143 244.372449,206.35102 L244.372449,230.595918 C244.372449,233.289796 242.219388,235.444898 239.528061,235.444898 C236.836735,235.444898 234.683673,233.289796 234.683673,230.595918 L234.683673,230.595918 Z M255.137755,230.595918 L255.137755,206.35102 C255.137755,203.657143 257.290816,201.502041 259.982143,201.502041 C262.673469,201.502041 264.826531,203.657143 264.826531,206.35102 L264.826531,230.595918 C264.826531,233.289796 262.673469,235.444898 259.982143,235.444898 C257.290816,235.444898 255.137755,233.289796 255.137755,230.595918 L255.137755,230.595918 Z M275.591837,230.595918 L275.591837,206.35102 C275.591837,203.657143 277.744898,201.502041 280.436224,201.502041 C283.127551,201.502041 285.280612,203.657143 285.280612,206.35102 L285.280612,230.595918 C285.280612,233.289796 283.127551,235.444898 280.436224,235.444898 C277.744898,235.444898 275.591837,233.289796 275.591837,230.595918 L275.591837,230.595918 Z M296.045918,230.595918 L296.045918,206.35102 C296.045918,203.657143 298.19898,201.502041 300.890306,201.502041 C303.581633,201.502041 305.734694,203.657143 305.734694,206.35102 L305.734694,230.595918 C305.734694,233.289796 303.581633,235.444898 300.890306,235.444898 C298.19898,235.444898 296.045918,233.289796 296.045918,230.595918 L296.045918,230.595918 Z M316.5,230.595918 L316.5,206.35102 C316.5,203.657143 318.653061,201.502041 321.344388,201.502041 C324.035714,201.502041 326.188776,203.657143 326.188776,206.35102 L326.188776,230.595918 C326.188776,233.289796 324.035714,235.444898 321.344388,235.444898 C318.653061,235.444898 316.5,233.289796 316.5,230.595918 L316.5,230.595918 Z M68.8979592,155.706122 C68.8979592,158.4 66.744898,160.555102 64.0535714,160.555102 C61.3622449,160.555102 59.2091837,158.4 59.2091837,155.706122 L59.2091837,131.461224 C59.2091837,128.767347 61.3622449,126.612245 64.0535714,126.612245 C66.744898,126.612245 68.8979592,128.767347 68.8979592,131.461224 L68.8979592,155.706122 L68.8979592,155.706122 Z M300.352041,56.5714286 C300.352041,53.877551 302.505102,51.722449 305.196429,51.722449 C307.887755,51.722449 310.040816,53.877551 310.040816,56.5714286 L310.040816,80.8163265 C310.040816,83.5102041 307.887755,85.6653061 305.196429,85.6653061 C302.505102,85.6653061 300.352041,83.5102041 300.352041,80.8163265 L300.352041,56.5714286 L300.352041,56.5714286 Z M279.897959,56.5714286 C279.897959,53.877551 282.05102,51.722449 284.742347,51.722449 C287.433673,51.722449 289.586735,53.877551 289.586735,56.5714286 L289.586735,80.8163265 C289.586735,83.5102041 287.433673,85.6653061 284.742347,85.6653061 C282.05102,85.6653061 279.897959,83.5102041 279.897959,80.8163265 L279.897959,56.5714286 L279.897959,56.5714286 Z M259.443878,56.5714286 C259.443878,53.877551 261.596939,51.722449 264.288265,51.722449 C266.979592,51.722449 269.132653,53.877551 269.132653,56.5714286 L269.132653,80.8163265 C269.132653,83.5102041 266.979592,85.6653061 264.288265,85.6653061 C261.596939,85.6653061 259.443878,83.5102041 259.443878,80.8163265 L259.443878,56.5714286 L259.443878,56.5714286 Z M248.678571,74.3510204 L248.678571,81.355102 C248.678571,89.9755102 255.67602,96.9795918 264.288265,96.9795918 C268.056122,96.9795918 271.82398,95.3632653 274.515306,93.2081633 C277.206633,95.9020408 280.97449,96.9795918 284.742347,96.9795918 C288.510204,96.9795918 292.278061,95.3632653 294.969388,93.2081633 C297.660714,95.9020408 301.428571,96.9795918 305.196429,96.9795918 C313.808673,96.9795918 320.806122,89.9755102 320.806122,81.355102 L320.806122,74.3510204 L368.711735,74.3510204 L368.711735,117.453061 C366.558673,116.37551 364.405612,115.836735 362.252551,115.836735 C353.640306,115.836735 346.642857,122.840816 346.642857,131.461224 L346.642857,138.465306 L327.265306,138.465306 L327.265306,131.461224 C327.265306,122.840816 320.267857,115.836735 311.655612,115.836735 C307.887755,115.836735 304.119898,117.453061 301.428571,119.608163 C298.737245,116.914286 294.969388,115.836735 291.201531,115.836735 C287.433673,115.836735 283.665816,117.453061 280.97449,119.608163 C278.283163,116.914286 274.515306,115.836735 270.747449,115.836735 C266.979592,115.836735 263.211735,117.453061 260.520408,119.608163 C257.829082,116.914286 254.061224,115.836735 250.293367,115.836735 C246.52551,115.836735 242.757653,117.453061 240.066327,119.608163 C237.375,116.914286 233.607143,115.836735 229.839286,115.836735 C221.227041,115.836735 214.229592,122.840816 214.229592,131.461224 L214.229592,138.465306 L183.010204,138.465306 L183.010204,131.461224 C183.010204,122.840816 176.012755,115.836735 167.40051,115.836735 C158.788265,115.836735 151.790816,122.840816 151.790816,131.461224 L151.790816,138.465306 L120.033163,138.465306 L120.033163,131.461224 C120.033163,122.840816 113.035714,115.836735 104.423469,115.836735 C100.655612,115.836735 96.8877551,117.453061 94.1964286,119.608163 C91.505102,116.914286 87.7372449,115.836735 83.9693878,115.836735 C80.2015306,115.836735 76.4336735,117.453061 73.7423469,119.608163 C71.0510204,116.914286 67.2831633,115.836735 63.5153061,115.836735 C61.9005102,115.836735 60.2857143,116.37551 58.6709184,116.37551 L58.6709184,95.3632653 C60.2857143,95.9020408 61.9005102,95.9020408 63.5153061,95.9020408 C67.2831633,95.9020408 71.0510204,94.2857143 73.7423469,92.1306122 C76.4336735,94.8244898 80.2015306,95.9020408 83.9693878,95.9020408 C87.7372449,95.9020408 91.505102,94.2857143 94.1964286,92.1306122 C96.8877551,94.8244898 100.655612,95.9020408 104.423469,95.9020408 C108.191327,95.9020408 111.959184,94.2857143 114.65051,92.1306122 C117.341837,94.8244898 121.109694,95.9020408 124.877551,95.9020408 C128.645408,95.9020408 132.413265,94.2857143 135.104592,92.1306122 C137.795918,94.8244898 141.563776,95.9020408 145.331633,95.9020408 C149.09949,95.9020408 152.867347,94.2857143 155.558673,92.1306122 C158.25,94.8244898 162.017857,95.9020408 165.785714,95.9020408 C169.553571,95.9020408 173.321429,94.2857143 176.012755,92.1306122 C178.704082,94.8244898 182.471939,95.9020408 186.239796,95.9020408 C194.852041,95.9020408 201.84949,88.8979592 201.84949,80.277551 L201.84949,73.2734694 L248.678571,73.2734694 L248.678571,74.3510204 Z M182.471939,56.5714286 C182.471939,53.877551 184.625,51.722449 187.316327,51.722449 C190.007653,51.722449 192.160714,53.877551 192.160714,56.5714286 L192.160714,80.8163265 C192.160714,83.5102041 190.007653,85.6653061 187.316327,85.6653061 C184.625,85.6653061 182.471939,83.5102041 182.471939,80.8163265 L182.471939,56.5714286 L182.471939,56.5714286 Z M162.017857,56.5714286 C162.017857,53.877551 164.170918,51.722449 166.862245,51.722449 C169.553571,51.722449 171.706633,53.877551 171.706633,56.5714286 L171.706633,80.8163265 C171.706633,83.5102041 169.553571,85.6653061 166.862245,85.6653061 C164.170918,85.6653061 162.017857,83.5102041 162.017857,80.8163265 L162.017857,56.5714286 L162.017857,56.5714286 Z M141.563776,56.5714286 C141.563776,53.877551 143.716837,51.722449 146.408163,51.722449 C149.09949,51.722449 151.252551,53.877551 151.252551,56.5714286 L151.252551,80.8163265 C151.252551,83.5102041 149.09949,85.6653061 146.408163,85.6653061 C143.716837,85.6653061 141.563776,83.5102041 141.563776,80.8163265 L141.563776,56.5714286 L141.563776,56.5714286 Z M121.109694,56.5714286 C121.109694,53.877551 123.262755,51.722449 125.954082,51.722449 C128.645408,51.722449 130.798469,53.877551 130.798469,56.5714286 L130.798469,80.8163265 C130.798469,83.5102041 128.645408,85.6653061 125.954082,85.6653061 C123.262755,85.6653061 121.109694,83.5102041 121.109694,80.8163265 L121.109694,56.5714286 L121.109694,56.5714286 Z M100.655612,56.5714286 C100.655612,53.877551 102.808673,51.722449 105.5,51.722449 C108.191327,51.722449 110.344388,53.877551 110.344388,56.5714286 L110.344388,80.8163265 C110.344388,83.5102041 108.191327,85.6653061 105.5,85.6653061 C102.808673,85.6653061 100.655612,83.5102041 100.655612,80.8163265 L100.655612,56.5714286 L100.655612,56.5714286 Z M80.2015306,56.5714286 C80.2015306,53.877551 82.3545918,51.722449 85.0459184,51.722449 C87.7372449,51.722449 89.8903061,53.877551 89.8903061,56.5714286 L89.8903061,80.8163265 C89.8903061,83.5102041 87.7372449,85.6653061 85.0459184,85.6653061 C82.3545918,85.6653061 80.2015306,83.5102041 80.2015306,80.8163265 L80.2015306,56.5714286 L80.2015306,56.5714286 Z M64.0535714,52.2612245 C66.744898,52.2612245 68.8979592,54.4163265 68.8979592,57.1102041 L68.8979592,81.355102 C68.8979592,84.0489796 66.744898,86.2040816 64.0535714,86.2040816 C61.3622449,86.2040816 59.2091837,84.0489796 59.2091837,81.355102 L59.2091837,57.1102041 C59.747449,54.4163265 61.9005102,52.2612245 64.0535714,52.2612245 L64.0535714,52.2612245 Z M36.6020408,17.7795918 C36.6020408,14.5469388 39.2933673,11.3142857 43.0612245,11.3142857 C46.8290816,11.3142857 49.5204082,14.0081633 49.5204082,17.7795918 L49.5204082,56.5714286 L49.5204082,80.8163265 L49.5204082,131.461224 L49.5204082,155.706122 L49.5204082,356.669388 L37.1403061,356.669388 L37.1403061,17.7795918 L36.6020408,17.7795918 Z M408.005102,388.457143 L22.6071429,388.457143 C16.6862245,388.457143 11.8418367,383.608163 11.8418367,377.681633 C11.8418367,371.755102 16.6862245,366.906122 22.6071429,366.906122 L408.005102,366.906122 C413.92602,366.906122 418.770408,371.755102 418.770408,377.681633 C418.770408,383.608163 413.92602,388.457143 408.005102,388.457143 L408.005102,388.457143 Z" id="Shape"></path>
            </g>
        </g>
    </g>
</svg>