<?xml version="1.0" encoding="UTF-8" standalone="no"?>
<svg width="376px" height="395px" viewBox="0 0 376 395" version="1.1" xmlns="http://www.w3.org/2000/svg" xmlns:xlink="http://www.w3.org/1999/xlink">
    <!-- Generator: Sketch 40.3 (33839) - http://www.bohemiancoding.com/sketch -->
    <title>noun_170422_cc</title>
    <desc>Created with Sketch.</desc>
    <defs></defs>
    <g id="Page-1" stroke="none" stroke-width="1" fill="none" fill-rule="evenodd">
        <g id="noun_170422_cc" fill="#FFFFFF">
            <g id="Group">
                <path d="M186.777778,147.666667 C150.333333,148.555556 113.444444,150.333333 77,153.444444 C77,152.111111 77.4444444,150.333333 77.8888889,148.555556 C84.1111111,122.777778 93.4444444,98.7777778 107.222222,76.1111111 C108.111111,74.7777778 109,73.8888889 109.888889,73 L109.888889,73 L109.888889,73 C110.777778,72.1111111 112.111111,71.6666667 113.444444,71.2222222 C119.666667,68.5555556 134.333333,64.1111111 167.666667,61.4444444 C169,51.6666667 171.666667,42.3333333 175.222222,33.4444444 C160.111111,34.3333333 145,35.6666667 129.888889,37.8888889 C113.888889,40.5555556 99.6666667,45.8888889 89.8888889,60.1111111 C75.6666667,80.5555556 65,102.777778 58.3333333,126.777778 C57,132.111111 55.6666667,137.444444 53.4444444,144.555556 C51.6666667,141.444444 49.8888889,139.222222 49,137 C49,137 37.8888889,119.222222 21.8888889,118.777778 L13.4444444,118.777778 C5.88888889,119.222222 1,124.111111 0.555555556,131.666667 L0.555555556,147.666667 C0.555555556,155.666667 5.88888889,161 14.3333333,161 L38.7777778,161 L48.5555556,161 C49,161.444444 49,161.888889 49.4444444,162.333333 C48.5555556,162.777778 47.2222222,163.222222 46.3333333,164.111111 C25.8888889,183.666667 14.7777778,207.666667 15.2222222,236.111111 C15.6666667,253 17,270.333333 18.7777778,287.222222 C20.1111111,300.111111 23.2222222,313 29,325 C31.6666667,330.333333 34.7777778,334.333333 40.5555556,335.222222 C43.2222222,335.666667 43.6666667,337.444444 43.6666667,339.666667 L43.6666667,361 C43.6666667,370.777778 49.4444444,376.555556 59.2222222,376.555556 L84.5555556,376.555556 C95.2222222,376.555556 101,370.777778 101,360.111111 L101,343.222222 C139.666667,345.888889 177.888889,347.666667 216.111111,347.666667 L217.444444,347.666667 L217.444444,328.111111 L217.444444,290.777778 L216.555556,290.777778 C216.555556,290.777778 216.555556,290.777778 216.111111,290.777778 C216.111111,290.777778 216.111111,290.777778 215.666667,290.777778 L155.666667,290.777778 C150.777778,290.777778 146.777778,289.444444 144.555556,285 C142.333333,280.111111 144.111111,276.111111 147.222222,272.555556 C153,265.888889 160.555556,256.111111 169.444444,256.111111 L215.666667,256.111111 L217,256.111111 L217,178.333333 C205,170.777778 194.777778,160.111111 186.777778,147.666667 L186.777778,147.666667 Z M85,257.888889 C68.1111111,257.888889 54.7777778,244.111111 54.7777778,227.666667 C54.7777778,210.777778 68.5555556,197.444444 85,197.444444 C101.888889,197.444444 115.222222,211.222222 115.222222,227.666667 C115.222222,244.111111 101.444444,257.888889 85,257.888889 L85,257.888889 Z M361.888889,126.333333 C353.444444,139.666667 341.888889,149.888889 327.666667,157 C325,158.333333 323.666667,160.111111 323.666667,163.222222 L323.666667,357.444444 C323.666667,376.555556 311.222222,391.222222 293,393.888889 C272.555556,397 253,381.444444 252.111111,360.555556 L252.111111,355.666667 L252.111111,163.222222 C252.111111,160.111111 251.222222,158.777778 248.555556,157.444444 C198.777778,132.555556 185,68.1111111 219.666667,25 C227.666667,14.7777778 237.888889,7.22222222 249.444444,1.44444444 C250.333333,1 250.777778,1 253,0.111111111 C252.555556,1.88888889 252.111111,3.22222222 252.111111,4.55555556 L252.111111,73.4444444 C252.111111,76.5555556 253,78.3333333 255.222222,80.1111111 C265.444444,88.1111111 275.666667,96.1111111 285.444444,104.111111 C287.222222,105.444444 288.555556,105.888889 290.333333,104.111111 C300.555556,95.6666667 311.222222,87.6666667 321.444444,79.2222222 C323.222222,77.8888889 324.111111,76.1111111 324.111111,73.8888889 L324.111111,4.11111111 C324.111111,2.77777778 323.666667,1.88888889 323.666667,0.555555556 C324.111111,0.555555556 324.111111,0.111111111 324.555556,0.111111111 C327.666667,1.88888889 331.222222,3.66666667 334.333333,5.44444444 C376.111111,31.2222222 388.111111,85 361.888889,126.333333 L361.888889,126.333333 Z" id="Shape"></path>
            </g>
        </g>
    </g>
</svg>