<?xml version="1.0" encoding="UTF-8" standalone="no"?>
<svg width="505px" height="400px" viewBox="0 0 505 400" version="1.1" xmlns="http://www.w3.org/2000/svg" xmlns:xlink="http://www.w3.org/1999/xlink">
    <!-- Generator: Sketch 40.3 (33839) - http://www.bohemiancoding.com/sketch -->
    <title>noun_676655_cc</title>
    <desc>Created with Sketch.</desc>
    <defs></defs>
    <g id="Page-1" stroke="none" stroke-width="1" fill="none" fill-rule="evenodd">
        <g id="noun_676655_cc" fill="#FFFFFF">
            <g id="wifi-top">
                <path d="M270.246305,0.866995074 C277.980296,1.85221675 285.73399,2.66995074 293.458128,3.69458128 C352.571429,11.5763547 404.985222,34.955665 451.241379,72.3743842 C468.855947,86.6838453 484.920865,102.801598 499.172414,120.463054 C506.53202,129.536946 506.167488,137.261084 498.068966,145.694581 C492.755337,151.224959 487.441708,156.755337 482.128079,162.285714 C474.817734,169.862069 468.275862,169.546798 461.714286,161.20197 C427.970443,118.295567 385.684729,87.182266 333.73399,70.0689655 C231.527094,36.453202 120.197044,68.6403941 50.6403941,151.497537 C47.5369458,155.20197 44.6108374,159.054187 41.4975369,162.748768 C36.226601,169.004926 29.5369458,169.438424 23.7635468,163.674877 C17.27422,157.192118 10.9129721,150.581281 4.67980296,143.842365 C-1.31034483,137.349754 -1.57635468,128.926108 4.06896552,122.019704 C56.1576355,58.364532 122.049261,18.2364532 203.596059,4.79802956 C213.743842,3.12315271 224.009852,2.15763547 234.226601,0.857142857 L270.246305,0.857142857 L270.246305,0.866995074 Z" id="Shape"></path>
                <path d="M246.226601,399.133005 C244.098522,398.295567 241.960591,397.507389 239.852217,396.62069 C224.837438,390.315271 216.502463,373.665025 220.078818,357.123153 C223.497537,341.359606 237.605911,329.832512 252.955665,330.374384 C269.280788,330.955665 282.315271,343.044335 284.945813,360.029557 C287.239709,376.132157 277.985772,391.652506 262.729064,397.29064 C261.20197,397.832512 259.773399,398.512315 258.236453,399.123153 L246.226601,399.123153 L246.226601,399.133005 Z" id="Shape"></path>
                <path d="M428.699507,212.403941 C426.364532,216.778325 424.817734,221.270936 421.990148,224.650246 C416.768473,230.906404 410.79803,236.53202 405.133005,242.384236 C396.935961,250.906404 391.339901,250.44335 384.738916,240.738916 C365.330049,212.246305 339.82266,191.300493 307.546798,178.955665 C239.399015,152.8867 162.512315,177.91133 120.35468,239.73399 C119.299096,241.430374 118.134065,243.056152 116.866995,244.600985 C112.837438,249.103448 107.014778,249.783251 102.689655,245.586207 C95.1724138,238.26601 87.8325123,230.719212 80.8669951,222.926108 C75.8586174,217.127957 75.5754566,208.620821 80.1871921,202.502463 C114.551724,156.029557 159.46798,125.192118 216.866995,116.197044 C302.078818,102.847291 370.305419,133.546798 422.926108,200.79803 C425.37931,203.940887 426.600985,208.029557 428.699507,212.403941 L428.699507,212.403941 Z" id="Shape"></path>
                <path d="M359.605911,284.53202 C357.408867,288.610837 355.852217,293.083744 352.995074,296.453202 C347.29064,303.172414 340.896552,309.320197 334.729064,315.64532 C328.374384,322.167488 322.246305,321.852217 316.768473,314.502463 C304.945813,298.738916 289.970443,287.477833 270.650246,283.142857 C238.916256,276.019704 212.522167,285.793103 191.300493,310.029557 C189.546798,312 188.118227,314.325123 186.374384,316.295567 C181.763547,321.359606 175.921182,321.64532 171.064039,316.807882 C164.108374,309.862069 157.270936,302.817734 150.610837,295.546798 C144.561576,288.906404 144.630542,280.167488 150.512315,273.330049 C179.665025,239.458128 216.453202,222.453202 261.231527,225.251232 C299.487685,227.635468 330.551724,245.034483 354.926108,274.394089 C356.945813,276.926108 357.753695,280.522167 359.605911,284.53202 L359.605911,284.53202 Z" id="Shape"></path>
            </g>
        </g>
    </g>
</svg>