<?xml version="1.0" encoding="utf-8"?>
<!-- Generator: Adobe Illustrator 22.0.1, SVG Export Plug-In . SVG Version: 6.00 Build 0)  -->
<svg version="1.1" id="Layer_1" xmlns="http://www.w3.org/2000/svg" xmlns:xlink="http://www.w3.org/1999/xlink" x="0px" y="0px"
	 width="100px" height="56px" viewBox="0 0 100 56" style="enable-background:new 0 0 100 56;" xml:space="preserve">
<style type="text/css">
	.st0{fill:#FFFFFF;}
</style>
<title>Dealer Inventory</title>
<desc>Created with Sketch.</desc>
<g id="Welcome">
	<g id="Desktop-Copy" transform="translate(-140.000000, -51.000000)">
		<g id="Dealer-Inventory" transform="translate(140.000000, 51.000000)">
			<g id="Group">
				<path id="Shape" class="st0" d="M99.8,23.9c-0.1-0.4-0.3-0.8-0.7-1.1L80.1,9.4c-0.5-0.3-1-0.4-1.6-0.2l-11.1,4.3
					c-0.7,0.2-1.1,0.9-1.1,1.6v2.5l-11.7-1.5l-1.3-9.8c-0.3-3.2-2.9-5.7-6.2-5.7H14.8c-3.2,0-5.9,2.5-6.2,5.7L6.8,19.8L0,23.9
					l0,19.9h3.5l0,6.5c0,2.8,2.3,5.1,5.1,5.1s5-2.3,5-5.1l0-6.5h34.7l0,6.5c0,2.8,2.3,5.1,5,5.1c2.8,0,5.1-2.3,5.1-5.1l0-6.5h3.5
					l0-19.9l-6.8-4.1L54.8,18l11.4,1.5l0,7.5c0,0.5,0.3,1.1,0.7,1.4l18.9,13.1c0.8,0.5,1.8,0.3,2.3-0.4l11.3-16
					c0.2-0.2,0.3-0.5,0.3-0.8C99.8,24.2,99.8,24.1,99.8,23.9L99.8,23.9z M8.4,35c-2.3,0-4.2-1.9-4.2-4.2c0-2.3,1.9-4.2,4.2-4.2
					c2.3,0,4.2,1.9,4.2,4.2C12.6,33.1,10.7,35,8.4,35L8.4,35z M16.5,36.6l0-7.6c0-1.1,0.9-1.9,1.9-1.9h25c1.1,0,1.9,0.9,1.9,1.9
					l0,7.6H16.5L16.5,36.6z M12.3,19L13,6.6c0.1-1.7,1.5-1.6,3.2-1.6h29.4c1.7,0,3.1,0,3.2,1.6L49.6,19H12.3L12.3,19z M57.7,30.7
					c0,2.3-1.9,4.2-4.2,4.2c-2.3,0-4.2-1.9-4.2-4.2c0-2.3,1.9-4.2,4.2-4.2C55.8,26.5,57.7,28.4,57.7,30.7L57.7,30.7z M86.4,37.8
					L69.6,26.2v-6.2l2.6,0.3c0.2,1.1,1.1,2,2.3,2.2c1.5,0.2,2.8-0.8,3-2.3c0.2-1.5-0.9-2.8-2.3-3c-1.1-0.1-2.2,0.4-2.7,1.4l-2.9-0.4
					l0-1.8l9.2-3.6l16.9,11.9L86.4,37.8L86.4,37.8z"/>
			</g>
		</g>
	</g>
</g>
</svg>
