<?xml version="1.0" encoding="utf-8"?>
<!-- Generator: Adobe Illustrator 22.0.1, SVG Export Plug-In . SVG Version: 6.00 Build 0)  -->
<svg version="1.1" id="Layer_1" xmlns="http://www.w3.org/2000/svg" xmlns:xlink="http://www.w3.org/1999/xlink" x="0px" y="0px"
	 width="80px" height="90px" viewBox="0 0 80 90" style="enable-background:new 0 0 80 90;" xml:space="preserve">
<style type="text/css">
	.st0{fill:#FFFFFF;}
</style>
<title>Coupon</title>
<desc>Created with Sketch.</desc>
<g id="Welcome">
	<g id="Desktop-Copy" transform="translate(-150.000000, -156.000000)">
		<g id="Coupon" transform="translate(150.000000, 156.000000)">
			<g id="noun_111746_cc">
				<g id="Group">
					<g id="Shape" transform="translate(0.000000, 11.000000)">
						<polygon class="st0" points="5.8,8.1 0.7,8.1 0.7,0.5 8.4,0.5 8.4,5.6 5.8,5.6 						"/>
						<path class="st0" d="M5.8,62.3H0.7v-9h5.1V62.3L5.8,62.3z M5.8,44.3H0.7v-9h5.1V44.3L5.8,44.3z M5.8,26.2H0.7v-9h5.1V26.2
							L5.8,26.2z"/>
						<polygon class="st0" points="8.4,79 0.7,79 0.7,71.3 5.8,71.3 5.8,73.9 8.4,73.9 						"/>
						<path class="st0" d="M62.6,79h-9v-5.1h9V79L62.6,79z M44.5,79h-9v-5.1h9V79L44.5,79z M26.5,79h-9v-5.1h9V79L26.5,79z"/>
						<polygon class="st0" points="79.3,79 71.6,79 71.6,73.9 74.2,73.9 74.2,71.3 79.3,71.3 						"/>
						<path class="st0" d="M79.3,62.3h-5.1v-9h5.1V62.3L79.3,62.3z M79.3,44.3h-5.1v-9h5.1V44.3L79.3,44.3z M79.3,26.2h-5.1v-9h5.1
							V26.2L79.3,26.2z"/>
						<polygon class="st0" points="79.3,8.1 74.2,8.1 74.2,5.6 71.6,5.6 71.6,0.5 79.3,0.5 						"/>
						<path class="st0" d="M62.6,5.6h-9V0.5h9V5.6L62.6,5.6z M44.5,5.6h-9V0.5h9V5.6L44.5,5.6z M26.5,5.6h-9V0.5h9V5.6L26.5,5.6z"/>
					</g>
					<path id="Shape_1_" class="st0" d="M53.7,56.9c0,3.1-1.2,5.6-3.5,7.5c-2.4,1.9-5.3,3-8.7,3.2v7H39v-7c-3.5-0.1-6.5-0.9-9-2.4
						c-2.5-1.5-3.7-3.3-3.7-5.3c0-1.2,0.4-2.2,1.1-3c0.7-0.8,1.7-1.2,3-1.2c1.3,0,2.4,0.3,3.1,1c0.8,0.7,1.2,1.6,1.2,2.8
						c0,0.8-0.1,1.7-0.4,2.6c-0.3,0.9-0.5,1.5-0.7,2c0.4,0.2,1.2,0.5,2.2,0.9c1,0.4,2.1,0.5,3.2,0.5V54.3c-0.2,0-0.5-0.1-0.7-0.1
						c-0.2,0-0.5-0.1-0.7-0.1c-3.2-0.3-5.7-1.3-7.5-2.9c-1.8-1.6-2.8-3.8-2.8-6.4c0-1.2,0.2-2.3,0.6-3.4c0.4-1.1,1.1-2.1,2-3.1
						c0.9-1,2.1-1.8,3.6-2.5c1.5-0.7,3.3-1.1,5.5-1.2v-5.4h2.5v5.4c3.4,0.1,6.2,0.8,8.3,2.1c2.1,1.3,3.2,2.9,3.2,4.8
						c0,1.1-0.3,2.1-1,2.9c-0.7,0.8-1.6,1.2-2.8,1.2c-1.3,0-2.3-0.3-3-1c-0.7-0.7-1.1-1.6-1.1-2.7c0-0.8,0.1-1.5,0.4-2.3
						c0.3-0.7,0.5-1.4,0.7-2c-0.4-0.2-1.1-0.4-1.9-0.6c-0.8-0.1-1.7-0.2-2.6-0.3v10.2c0.2,0,0.6,0.1,0.9,0.1c0.4,0.1,0.7,0.1,1,0.2
						c3.4,0.5,6,1.6,7.7,3.2C52.9,52.1,53.7,54.2,53.7,56.9L53.7,56.9z M39,46.7v-10c-1.9,0.2-3.4,0.8-4.4,1.7c-1,0.9-1.5,2-1.5,3.3
						c0,1.5,0.4,2.6,1.2,3.4c0.8,0.8,2,1.3,3.6,1.5c0.2,0,0.4,0.1,0.6,0.1C38.6,46.6,38.8,46.7,39,46.7L39,46.7z M47.9,59.8
						c0-1.4-0.4-2.5-1.2-3.4c-0.8-0.9-2.1-1.4-3.8-1.8c-0.2,0-0.4-0.1-0.6-0.1c-0.2,0-0.5-0.1-0.7-0.1v11c2.3-0.2,3.9-0.8,4.9-1.9
						C47.4,62.5,47.9,61.3,47.9,59.8L47.9,59.8z"/>
					<path id="Shape_2_" class="st0" d="M45,3.5c0,0-0.8-1.9-5.7-0.8c-3.7,0.8-7.9,2.1-11.5,4.4c-1.9,1.2-3.6,2.3-5.2,3.4l-6.3-3.7
						c0.1-2.4-1.1-4.6-3.2-5.9C11-0.3,8.4-0.3,6.4,1C5.5,1.5,4.7,2.3,4.2,3.2C3.3,4.7,3.1,6.5,3.5,8.2c0.4,1.7,1.5,3.1,3,4
						c2.1,1.2,4.7,1.2,6.8-0.1c0.3-0.2,0.5-0.4,0.8-0.6c0.8,0.6,2,1.5,3.6,2.6c-1.3,1-2.4,1.8-3.1,2.4c-2.1-1.7-5.1-2-7.6-0.5
						c-3,1.9-4,5.9-2.1,9c1.9,3,5.9,4,9,2.1c2.1-1.3,3.2-3.6,3-6l5.8-3.6c1.5,1,3.1,2,4.9,3c3.6,2.1,7.9,3.4,11.6,4
						c5,0.9,5.7-1,5.7-1l-16.4-9.6L45,3.5L45,3.5z M13.5,7.3c-0.1,0.4-0.2,0.8-0.4,1.1c-0.3,0.5-0.7,1-1.3,1.3
						c-1.2,0.8-2.7,0.8-4,0.1C7,9.3,6.4,8.5,6.1,7.5S6,5.5,6.5,4.6c0.3-0.5,0.7-1,1.3-1.3c1.2-0.8,2.7-0.8,4-0.1
						C13.2,4.1,13.9,5.7,13.5,7.3L13.5,7.3z M12.4,24.8c-1.8,1.1-4.1,0.6-5.3-1.2c-1.1-1.8-0.6-4.1,1.2-5.3c1.8-1.1,4.1-0.6,5.3,1.2
						c0.2,0.3,0.4,0.7,0.5,1.1C14.5,22.2,13.8,23.9,12.4,24.8L12.4,24.8z"/>
				</g>
			</g>
		</g>
	</g>
</g>
</svg>
