<?xml version="1.0" encoding="utf-8"?>
<!-- Generator: Adobe Illustrator 22.0.1, SVG Export Plug-In . SVG Version: 6.00 Build 0)  -->
<svg version="1.1" id="Layer_1" xmlns="http://www.w3.org/2000/svg" xmlns:xlink="http://www.w3.org/1999/xlink" x="0px" y="0px"
	 width="96px" height="96px" viewBox="0 0 96 96" style="enable-background:new 0 0 96 96;" xml:space="preserve">
<style type="text/css">
	.st0{fill:#FFFFFF;}
</style>
<title>Schedule</title>
<desc>Created with Sketch.</desc>
<g id="Welcome">
	<g id="Desktop-Copy" transform="translate(-142.000000, -295.000000)">
		<g id="Schedule" transform="translate(142.000000, 295.000000)">
			<g id="Artboard-10">
				<path id="Shape" class="st0" d="M25.7,47.1c0,1.5-1.2,2.7-2.7,2.7h-4c-1.5,0-2.7-1.2-2.7-2.7v-4c0-1.5,1.2-2.7,2.7-2.7h4
					c1.5,0,2.7,1.2,2.7,2.7V47.1z M41,43.1c0-1.5-1.2-2.7-2.7-2.7h-4c-0.7,0-1.4,0.3-1.9,0.8c-0.5,0.5-0.8,1.2-0.8,1.9v4
					c0,0.7,0.3,1.4,0.8,1.9c0.5,0.5,1.2,0.8,1.9,0.8h4c1.5,0,2.7-1.2,2.7-2.7L41,43.1z M49.6,49.9h4c1.5,0,2.7-1.2,2.7-2.7v-4
					c0-1.5-1.2-2.7-2.7-2.7h-4c-1.5,0-2.7,1.2-2.7,2.7v4C46.9,48.7,48.1,49.9,49.6,49.9L49.6,49.9z M22.9,56.3h-4
					c-0.7,0-1.4,0.3-2,0.8s-0.8,1.2-0.8,2v4c0,1.5,1.2,2.7,2.7,2.7h4c0.7,0,1.4-0.3,2-0.8s0.8-1.2,0.8-2v-4c0-0.7-0.3-1.4-0.8-1.9
					C24.3,56.5,23.6,56.3,22.9,56.3L22.9,56.3z M38.3,56.3h-4c-0.7,0-1.4,0.3-2,0.8s-0.8,1.2-0.8,2v4c0,0.7,0.3,1.4,0.8,1.9
					c0.5,0.5,1.2,0.8,1.9,0.8h4c1.5,0,2.7-1.2,2.7-2.7v-4C41,57.5,39.8,56.3,38.3,56.3L38.3,56.3z M8.6,82.4h37.5
					c-1.1-3.1-1.6-6.3-1.6-9.6h-35V33.1h67.8v10.7c3.3,0.4,6.6,1.4,9.6,2.9V19.4c0-4.8-3.9-8.6-8.6-8.6h-9.2V4.3
					c0-1.9-1.5-3.4-3.4-3.4h-5.4c-1.9,0-3.4,1.5-3.4,3.4v6.5H30V4.3c0-1.9-1.5-3.4-3.4-3.4h-5.4c-1.9,0-3.4,1.5-3.4,3.4v6.5H8.6
					c-4.8,0-8.6,3.9-8.6,8.6v54.3C0,78.6,3.9,82.4,8.6,82.4L8.6,82.4z M96,72.9c0,12.3-10,22.2-22.2,22.2s-22.2-10-22.2-22.2
					s10-22.2,22.2-22.2S96,60.6,96,72.9L96,72.9z M83.5,79c0-0.9-0.3-1.8-1-2.5l-5.1-5.1v-7.9c0-2-1.6-3.6-3.6-3.6s-3.6,1.6-3.6,3.6
					v10.9l7.2,7.2c1,1,2.5,1.3,3.9,0.7C82.6,81.7,83.5,80.4,83.5,79L83.5,79z"/>
			</g>
		</g>
	</g>
</g>
</svg>
