<?xml version="1.0" encoding="UTF-8" standalone="no"?>
<svg width="100px" height="56px" viewBox="0 0 100 56" version="1.1" xmlns="http://www.w3.org/2000/svg" xmlns:xlink="http://www.w3.org/1999/xlink">
    <!-- Generator: Sketch 40.3 (33839) - http://www.bohemiancoding.com/sketch -->
    <title>Dealer Inventory</title>
    <desc>Created with Sketch.</desc>
    <defs></defs>
    <g id="Welcome" stroke="none" stroke-width="1" fill="none" fill-rule="evenodd">
        <g id="Desktop-Copy" transform="translate(-140.000000, -51.000000)" fill="#000000">
            <g id="Dealer-Inventory" transform="translate(140.000000, 51.000000)">
                <g id="Group">
                    <path d="M99.798,23.901 C99.724,23.458 99.477,23.065 99.109,22.808 L80.057,9.411 C79.594,9.089 79.008,9.016 78.479,9.221 L67.352,13.532 C66.7,13.781 66.275,14.413 66.272,15.1 L66.272,17.646 L54.571,16.101 L53.259,6.318 C52.994,3.134 50.331,0.628 47.083,0.628 L14.76,0.628 C11.514,0.628 8.85,3.134 8.585,6.318 L6.803,19.771 L0.001,23.882 L0.017,43.736 L3.499,43.736 L3.491,50.233 C3.491,53.026 5.75,55.29 8.541,55.29 C11.332,55.29 13.59,53.026 13.59,50.233 L13.586,43.736 L48.262,43.736 L48.256,50.233 C48.256,53.026 50.517,55.29 53.302,55.29 C56.093,55.29 58.354,53.026 58.354,50.233 L58.346,43.736 L61.827,43.736 L61.843,23.882 L55.063,19.782 L54.824,17.995 L66.272,19.507 L66.27,27.047 C66.272,27.597 66.541,28.112 66.989,28.43 L85.841,41.561 C86.598,42.086 87.641,41.906 88.177,41.151 L99.516,25.161 C99.676,24.933 99.776,24.674 99.81,24.403 C99.832,24.237 99.829,24.066 99.798,23.901 L99.798,23.901 Z M8.415,34.971 C6.078,34.971 4.185,33.074 4.185,30.734 C4.185,28.397 6.078,26.5 8.415,26.5 C10.749,26.5 12.644,28.397 12.644,30.734 C12.644,33.073 10.749,34.971 8.415,34.971 L8.415,34.971 Z M16.485,36.591 L16.492,28.976 C16.492,27.923 17.349,27.066 18.401,27.066 L43.394,27.066 C44.449,27.066 45.302,27.923 45.302,28.976 L45.309,36.591 L16.485,36.591 L16.485,36.591 Z M12.255,19.038 L13.01,6.556 C13.148,4.903 14.53,4.932 16.217,4.932 L45.636,4.932 C47.323,4.932 48.705,4.903 48.848,6.556 L49.601,19.038 L12.255,19.038 L12.255,19.038 Z M57.658,30.733 C57.658,33.073 55.764,34.97 53.429,34.97 C51.095,34.97 49.2,33.073 49.2,30.733 C49.2,28.396 51.095,26.499 53.429,26.499 C55.765,26.499 57.658,28.396 57.658,30.733 L57.658,30.733 Z M86.394,37.842 L69.639,26.168 L69.639,19.943 L72.27,20.286 C72.487,21.391 73.374,22.286 74.553,22.44 C76.025,22.63 77.373,21.591 77.565,20.116 C77.754,18.644 76.715,17.296 75.242,17.105 C74.122,16.959 73.072,17.532 72.554,18.46 L69.641,18.083 L69.644,16.257 L78.857,12.687 L95.789,24.589 L86.394,37.842 L86.394,37.842 Z" id="Shape"></path>
                </g>
            </g>
        </g>
    </g>
</svg>