<?xml version="1.0" encoding="UTF-8" standalone="no"?>
<svg width="96px" height="96px" viewBox="0 0 96 96" version="1.1" xmlns="http://www.w3.org/2000/svg" xmlns:xlink="http://www.w3.org/1999/xlink">
    <!-- Generator: Sketch 40.3 (33839) - http://www.bohemiancoding.com/sketch -->
    <title>Schedule</title>
    <desc>Created with Sketch.</desc>
    <defs></defs>
    <g id="Welcome" stroke="none" stroke-width="1" fill="none" fill-rule="evenodd">
        <g id="Desktop-Copy" transform="translate(-142.000000, -295.000000)" fill="#000000">
            <g id="Schedule" transform="translate(142.000000, 295.000000)">
                <g id="Artboard-10">
                    <path d="M25.67,47.13 C25.67,48.6432602 24.4432602,49.87 22.93,49.87 L18.93,49.87 C17.4167398,49.87 16.19,48.6432602 16.19,47.13 L16.19,43.13 C16.19,41.6167398 17.4167398,40.39 18.93,40.39 L22.93,40.39 C24.4432602,40.39 25.67,41.6167398 25.67,43.13 L25.67,47.13 Z M41.05,43.13 C41.05,41.6167398 39.8232602,40.39 38.31,40.39 L34.31,40.39 C33.5833068,40.39 32.8863771,40.6786777 32.3725274,41.1925274 C31.8586777,41.7063771 31.57,42.4033068 31.57,43.13 L31.57,47.13 C31.57,47.8566932 31.8586777,48.5536229 32.3725274,49.0674726 C32.8863771,49.5813223 33.5833068,49.87 34.31,49.87 L38.31,49.87 C39.8036984,49.8427382 41.0002488,48.6239471 41,47.13 L41.05,43.13 Z M49.64,49.91 L53.64,49.91 C55.1532602,49.91 56.38,48.6832602 56.38,47.17 L56.38,43.17 C56.38,41.6567398 55.1532602,40.43 53.64,40.43 L49.64,40.43 C48.1267398,40.43 46.9,41.6567398 46.9,43.17 L46.9,47.17 C46.9164411,48.6715315 48.1383785,49.88009 49.64,49.88 L49.64,49.91 Z M22.92,56.26 L18.92,56.26 C18.1864012,56.2492894 17.4791512,56.5332319 16.9566176,57.048247 C16.4340839,57.5632622 16.1399218,58.266323 16.14,59 L16.14,63 C16.14,64.5132602 17.3667398,65.74 18.88,65.74 L22.88,65.74 C23.6153173,65.7534204 24.3251614,65.4706782 24.8498763,64.9553668 C25.3745913,64.4400553 25.6701225,63.7354398 25.67,63 L25.67,59 C25.6700049,58.2715709 25.3799548,57.5731214 24.8639403,57.0589833 C24.3479258,56.5448452 23.6484243,56.2573415 22.92,56.26 L22.92,56.26 Z M38.3,56.26 L34.3,56.26 C33.5664012,56.2492894 32.8591512,56.5332319 32.3366176,57.048247 C31.8140839,57.5632622 31.5199218,58.266323 31.52,59 L31.52,63 C31.52,63.7266932 31.8086777,64.4236229 32.3225274,64.9374726 C32.8363771,65.4513223 33.5333068,65.74 34.26,65.74 L38.26,65.74 C39.7732602,65.74 41,64.5132602 41,63 L41,59 C41.0001596,57.5022241 39.7976163,56.2818653 38.3,56.26 L38.3,56.26 Z M8.64,82.43 L46.11,82.43 C45.0442093,79.3588045 44.5000234,76.1308693 44.5,72.88 L9.5,72.88 L9.5,33.13 L77.32,33.13 L77.32,43.84 C80.6463925,44.244359 83.87754,45.2221617 86.87,46.73 L86.87,19.44 C86.8644894,14.6705442 82.9994558,10.8055106 78.23,10.8 L69.06,10.8 L69.06,4.3 C69.06,2.41118616 67.5288138,0.88 65.64,0.88 L60.28,0.88 C58.3911862,0.88 56.86,2.41118616 56.86,4.3 L56.86,10.8 L30,10.8 L30,4.3 C29.9945433,2.42287085 28.477105,0.900969479 26.6,0.89 L21.23,0.89 C19.3489886,0.895492039 17.825492,2.41898858 17.82,4.3 L17.82,10.8 L8.64,10.8 C3.87054421,10.8055106 0.0055106419,14.6705442 0,19.44 L0,73.79 C0.0055106419,78.5594558 3.87054421,82.4244894 8.64,82.43 L8.64,82.43 Z M96,72.88 C96,85.15729 86.04729,95.11 73.77,95.11 C61.49271,95.11 51.54,85.15729 51.54,72.88 C51.54,60.60271 61.49271,50.65 73.77,50.65 C86.04729,50.65 96,60.60271 96,72.88 L96,72.88 Z M83.48,79 C83.4942822,78.0605807 83.1345342,77.1540159 82.48,76.48 L77.38,71.38 L77.38,63.46 C77.38,61.4911049 75.7838951,59.895 73.815,59.895 C71.8461049,59.895 70.25,61.4911049 70.25,63.46 L70.25,74.36 L77.44,81.55 C78.4656559,82.5459185 79.9875828,82.8316808 81.3046403,82.2756383 C82.6216979,81.7195958 83.4783723,80.4296227 83.48,79 L83.48,79 Z" id="Shape"></path>
                </g>
            </g>
        </g>
    </g>
</svg>