<?xml version="1.0" encoding="UTF-8" standalone="no"?>
<svg width="80px" height="90px" viewBox="0 0 80 90" version="1.1" xmlns="http://www.w3.org/2000/svg" xmlns:xlink="http://www.w3.org/1999/xlink">
    <!-- Generator: Sketch 40.3 (33839) - http://www.bohemiancoding.com/sketch -->
    <title>Coupon</title>
    <desc>Created with Sketch.</desc>
    <defs></defs>
    <g id="Welcome" stroke="none" stroke-width="1" fill="none" fill-rule="evenodd">
        <g id="Desktop-Copy" transform="translate(-150.000000, -156.000000)" fill="#000000">
            <g id="Coupon" transform="translate(150.000000, 156.000000)">
                <g id="noun_111746_cc">
                    <g id="Group">
                        <g transform="translate(0.000000, 11.000000)" id="Shape">
                            <polygon points="5.839 8.125 0.737 8.125 0.737 0.475 8.39 0.475 8.39 5.576 5.839 5.576"></polygon>
                            <path d="M5.839,62.316 L0.737,62.316 L0.737,53.284 L5.839,53.284 L5.839,62.316 L5.839,62.316 Z M5.839,44.253 L0.737,44.253 L0.737,35.222 L5.839,35.222 L5.839,44.253 L5.839,44.253 Z M5.839,26.19 L0.737,26.19 L0.737,17.158 L5.839,17.158 L5.839,26.19 L5.839,26.19 Z"></path>
                            <polygon points="8.39 79 0.737 79 0.737 71.35 5.839 71.35 5.839 73.897 8.39 73.897"></polygon>
                            <path d="M62.581,79 L53.546,79 L53.546,73.897 L62.581,73.897 L62.581,79 L62.581,79 Z M44.515,79 L35.484,79 L35.484,73.897 L44.515,73.897 L44.515,79 L44.515,79 Z M26.451,79 L17.42,79 L17.42,73.897 L26.451,73.897 L26.451,79 L26.451,79 Z"></path>
                            <polygon points="79.262 79 71.613 79 71.613 73.897 74.161 73.897 74.161 71.35 79.262 71.35"></polygon>
                            <path d="M79.262,62.316 L74.161,62.316 L74.161,53.284 L79.262,53.284 L79.262,62.316 L79.262,62.316 Z M79.262,44.253 L74.161,44.253 L74.161,35.222 L79.262,35.222 L79.262,44.253 L79.262,44.253 Z M79.262,26.19 L74.161,26.19 L74.161,17.158 L79.262,17.158 L79.262,26.19 L79.262,26.19 Z"></path>
                            <polygon points="79.262 8.125 74.161 8.125 74.161 5.576 71.613 5.576 71.613 0.475 79.262 0.475"></polygon>
                            <path d="M62.581,5.576 L53.546,5.576 L53.546,0.475 L62.581,0.475 L62.581,5.576 L62.581,5.576 Z M44.515,5.576 L35.484,5.576 L35.484,0.475 L44.515,0.475 L44.515,5.576 L44.515,5.576 Z M26.451,5.576 L17.42,5.576 L17.42,0.475 L26.451,0.475 L26.451,5.576 L26.451,5.576 Z"></path>
                        </g>
                        <path d="M53.723,56.896 C53.723,59.985 52.545,62.481 50.188,64.381 C47.83,66.281 44.915,67.348 41.446,67.58 L41.446,74.577 L38.979,74.577 L38.979,67.58 C35.475,67.515 32.49,66.712 30.016,65.176 C27.541,63.64 26.304,61.86 26.304,59.835 C26.304,58.656 26.661,57.659 27.377,56.847 C28.092,56.033 29.085,55.627 30.35,55.627 C31.666,55.627 32.71,55.973 33.488,56.659 C34.259,57.349 34.648,58.282 34.648,59.463 C34.648,60.309 34.504,61.158 34.223,62.015 C33.94,62.869 33.707,63.537 33.523,64.021 C33.969,64.253 34.71,64.552 35.742,64.917 C36.777,65.281 37.856,65.464 38.98,65.464 L38.98,54.281 C38.747,54.248 38.522,54.219 38.309,54.196 C38.094,54.169 37.844,54.141 37.562,54.106 C34.372,53.808 31.857,52.846 30.017,51.217 C28.171,49.592 27.251,47.466 27.251,44.842 C27.251,43.68 27.464,42.542 27.899,41.429 C28.33,40.318 28.993,39.28 29.891,38.316 C30.804,37.321 32.01,36.486 33.513,35.814 C35.016,35.142 36.839,34.74 38.98,34.606 L38.98,29.176 L41.447,29.176 L41.447,34.606 C44.85,34.739 47.606,35.45 49.714,36.735 C51.824,38.022 52.879,39.612 52.879,41.505 C52.879,42.633 52.531,43.592 51.843,44.381 C51.157,45.169 50.205,45.565 48.994,45.565 C47.73,45.565 46.733,45.232 46.002,44.567 C45.272,43.904 44.908,43.007 44.908,41.879 C44.908,41.098 45.036,40.335 45.295,39.587 C45.553,38.84 45.781,38.168 45.98,37.57 C45.534,37.337 44.903,37.146 44.098,36.997 C43.293,36.848 42.41,36.757 41.448,36.723 L41.448,46.908 C41.696,46.926 42.011,46.969 42.394,47.032 C42.774,47.1 43.108,47.149 43.391,47.183 C46.794,47.68 49.368,48.762 51.111,50.42 C52.852,52.082 53.723,54.24 53.723,56.896 L53.723,56.896 Z M38.979,46.688 L38.979,36.724 C37.081,36.923 35.624,37.48 34.616,38.393 C33.608,39.305 33.103,40.402 33.103,41.68 C33.103,43.158 33.514,44.278 34.34,45.042 C35.166,45.805 36.362,46.304 37.929,46.536 C38.179,46.571 38.367,46.599 38.492,46.623 C38.616,46.648 38.781,46.668 38.979,46.688 L38.979,46.688 Z M47.87,59.835 C47.87,58.458 47.463,57.34 46.656,56.484 C45.843,55.63 44.561,55.038 42.81,54.704 C42.625,54.671 42.413,54.639 42.164,54.605 C41.915,54.572 41.675,54.537 41.444,54.505 L41.444,65.462 C43.709,65.247 45.345,64.62 46.356,63.583 C47.365,62.546 47.87,61.296 47.87,59.835 L47.87,59.835 Z" id="Shape"></path>
                        <path d="M45.034,3.53 C45.034,3.53 44.251,1.635 39.286,2.702 C35.598,3.495 31.353,4.83 27.764,7.071 C25.904,8.232 24.184,9.375 22.606,10.465 L16.315,6.776 C16.412,4.402 15.208,2.13 13.104,0.897 C11.004,-0.333 8.417,-0.296 6.354,0.993 C5.466,1.546 4.717,2.316 4.186,3.222 C3.306,4.724 3.061,6.479 3.501,8.164 C3.939,9.848 5.008,11.26 6.511,12.141 C8.609,13.371 11.198,13.334 13.263,12.045 C13.544,11.871 13.804,11.666 14.056,11.45 C14.859,12.065 16.075,12.972 17.617,14.064 C16.292,15.065 15.224,15.909 14.507,16.489 C12.407,14.78 9.366,14.495 6.944,16.008 C3.894,17.912 2.963,21.939 4.865,24.987 C6.767,28.034 10.795,28.967 13.845,27.064 C15.912,25.772 17.054,23.47 16.894,21.099 L22.683,17.485 C24.185,18.454 25.809,19.463 27.546,20.483 C31.192,22.62 35.466,23.833 39.17,24.521 C44.156,25.446 44.887,23.532 44.887,23.532 L28.444,13.889 L45.034,3.53 L45.034,3.53 Z M13.546,7.315 C13.459,7.715 13.311,8.097 13.104,8.451 C12.786,8.991 12.361,9.43 11.836,9.757 C10.624,10.513 9.106,10.536 7.876,9.814 C6.996,9.297 6.369,8.469 6.111,7.482 C5.853,6.495 5.997,5.467 6.512,4.587 C6.828,4.047 7.255,3.608 7.781,3.28 C8.993,2.523 10.509,2.501 11.739,3.223 C13.164,4.058 13.889,5.703 13.546,7.315 L13.546,7.315 Z M12.415,24.775 C10.627,25.891 8.267,25.344 7.152,23.558 C6.037,21.77 6.582,19.41 8.37,18.294 C10.158,17.179 12.516,17.726 13.633,19.513 C13.85,19.862 14.011,20.24 14.106,20.636 C14.494,22.239 13.815,23.901 12.415,24.775 L12.415,24.775 Z" id="Shape"></path>
                    </g>
                </g>
            </g>
        </g>
    </g>
</svg>