<?xml version="1.0" encoding="utf-8"?>
<!-- Generator: Adobe Illustrator 22.0.1, SVG Export Plug-In . SVG Version: 6.00 Build 0)  -->
<svg version="1.1" id="Layer_1" xmlns="http://www.w3.org/2000/svg" xmlns:xlink="http://www.w3.org/1999/xlink" x="0px" y="0px"
	 width="558.3px" height="188.5px" viewBox="0 0 558.3 188.5" enable-background="new 0 0 558.3 188.5" xml:space="preserve">
<g>
	<path fill="#4E4E4E" d="M89,179.3h112l-56-79.3L89,179.3z M440.5,11.1c-39.5,0-63,11.3-81.3,28.3l27.7,44.5c0.2,0.3,0.5,0.6,0.7,1
		c2.1-7.6,5.5-13.2,10.2-17c10.3-8.5,22.3-13.2,40.8-13.2h81.7l32-43.5H440.5z"/>
	<path fill="#010101" d="M438.7,135.8c-26.7,0-40-9.8-53.9-26.8c-3.8-4.7-7.7-9.9-11.9-15.6l-41.2-66.2c-7-9.9-18.4-15.9-30.6-15.9
		c-12.2,0-23.6,5.9-30.6,15.9l-37,52.3l30.6,43.4l37-52.3l34.8,53.1c23.2,31.3,46.7,55.6,104.7,55.6h78.2l32.6-43.5H438.7z
		 M175.7,27.2c-7-9.9-18.4-15.9-30.6-15.9s-23.6,5.9-30.6,15.9L7,179.3h61.2L145,70.6l76.8,108.8h61.2L175.7,27.2z"/>
</g>
</svg>
